<?xml version="1.0" encoding="UTF-8"?>
<!DOCTYPE svg PUBLIC "-//W3C//DTD SVG 1.1//EN" "http://www.w3.org/Graphics/SVG/1.1/DTD/svg11.dtd">
<!-- Creator: CorelDRAW 2020 (64-Bit) -->
<svg xmlns="http://www.w3.org/2000/svg" xml:space="preserve" width="100mm" height="100mm" version="1.1" style="shape-rendering:geometricPrecision; text-rendering:geometricPrecision; image-rendering:optimizeQuality; fill-rule:evenodd; clip-rule:evenodd"
viewBox="0 0 10000 10000"
 xmlns:xlink="http://www.w3.org/1999/xlink"
 xmlns:xodm="http://www.corel.com/coreldraw/odm/2003">
 <defs>
  <style type="text/css">
   <![CDATA[
    .str0 {stroke:#314652;stroke-width:100;stroke-miterlimit:22.9256}
    .fil145 {fill:none;fill-rule:nonzero}
    .fil1 {fill:#F9FBFE;fill-rule:nonzero}
    .fil2 {fill:#F8FBFE;fill-rule:nonzero}
    .fil3 {fill:#F8FBFD;fill-rule:nonzero}
    .fil4 {fill:#F7FBFD;fill-rule:nonzero}
    .fil5 {fill:#F6FAFD;fill-rule:nonzero}
    .fil6 {fill:#F5FAFD;fill-rule:nonzero}
    .fil7 {fill:#F5FAFD;fill-rule:nonzero}
    .fil8 {fill:#F4F9FD;fill-rule:nonzero}
    .fil9 {fill:#F4F9FC;fill-rule:nonzero}
    .fil10 {fill:#F3F8FC;fill-rule:nonzero}
    .fil11 {fill:#F2F8FC;fill-rule:nonzero}
    .fil12 {fill:#F1F8FC;fill-rule:nonzero}
    .fil13 {fill:#F0F7FB;fill-rule:nonzero}
    .fil14 {fill:#F0F6FB;fill-rule:nonzero}
    .fil15 {fill:#EFF6FB;fill-rule:nonzero}
    .fil16 {fill:#EEF6FB;fill-rule:nonzero}
    .fil17 {fill:#EEF5FB;fill-rule:nonzero}
    .fil18 {fill:#EDF5FB;fill-rule:nonzero}
    .fil19 {fill:#ECF4FA;fill-rule:nonzero}
    .fil20 {fill:#EBF4FA;fill-rule:nonzero}
    .fil21 {fill:#EBF3F9;fill-rule:nonzero}
    .fil22 {fill:#EAF3F9;fill-rule:nonzero}
    .fil23 {fill:#E9F2F9;fill-rule:nonzero}
    .fil24 {fill:#E9F2F9;fill-rule:nonzero}
    .fil25 {fill:#E8F1F8;fill-rule:nonzero}
    .fil26 {fill:#E7F1F8;fill-rule:nonzero}
    .fil27 {fill:#E6F1F8;fill-rule:nonzero}
    .fil28 {fill:#E6F0F8;fill-rule:nonzero}
    .fil29 {fill:#E6F0F7;fill-rule:nonzero}
    .fil30 {fill:#E5EFF7;fill-rule:nonzero}
    .fil31 {fill:#E4EEF7;fill-rule:nonzero}
    .fil32 {fill:#E3EEF6;fill-rule:nonzero}
    .fil33 {fill:#E2EDF6;fill-rule:nonzero}
    .fil34 {fill:#E2EDF5;fill-rule:nonzero}
    .fil35 {fill:#E1ECF5;fill-rule:nonzero}
    .fil36 {fill:#E1ECF5;fill-rule:nonzero}
    .fil37 {fill:#E0ECF5;fill-rule:nonzero}
    .fil38 {fill:#E0EBF4;fill-rule:nonzero}
    .fil39 {fill:#DFEBF4;fill-rule:nonzero}
    .fil40 {fill:#DEEAF4;fill-rule:nonzero}
    .fil41 {fill:#DDE9F2;fill-rule:nonzero}
    .fil42 {fill:#DCE8F2;fill-rule:nonzero}
    .fil43 {fill:#DBE7F2;fill-rule:nonzero}
    .fil44 {fill:#DBE7F1;fill-rule:nonzero}
    .fil45 {fill:#DAE6F1;fill-rule:nonzero}
    .fil46 {fill:#D9E6F1;fill-rule:nonzero}
    .fil47 {fill:#D8E5F0;fill-rule:nonzero}
    .fil48 {fill:#D7E4F0;fill-rule:nonzero}
    .fil49 {fill:#D6E3EE;fill-rule:nonzero}
    .fil50 {fill:#D5E2EE;fill-rule:nonzero}
    .fil51 {fill:#D5E2EE;fill-rule:nonzero}
    .fil52 {fill:#D5E1ED;fill-rule:nonzero}
    .fil53 {fill:#D4E1ED;fill-rule:nonzero}
    .fil54 {fill:#D3E0EC;fill-rule:nonzero}
    .fil55 {fill:#D3E0EC;fill-rule:nonzero}
    .fil56 {fill:#D2DFEB;fill-rule:nonzero}
    .fil57 {fill:#D1DFEB;fill-rule:nonzero}
    .fil58 {fill:#D1DEEA;fill-rule:nonzero}
    .fil59 {fill:#D0DEEA;fill-rule:nonzero}
    .fil60 {fill:#D0DDE9;fill-rule:nonzero}
    .fil61 {fill:#CFDCE9;fill-rule:nonzero}
    .fil62 {fill:#CEDBE8;fill-rule:nonzero}
    .fil63 {fill:#CDD9E6;fill-rule:nonzero}
    .fil64 {fill:#CCD8E5;fill-rule:nonzero}
    .fil65 {fill:#CAD7E4;fill-rule:nonzero}
    .fil66 {fill:#C8D6E3;fill-rule:nonzero}
    .fil67 {fill:#C8D5E2;fill-rule:nonzero}
    .fil68 {fill:#C6D3E0;fill-rule:nonzero}
    .fil69 {fill:#C5D2DE;fill-rule:nonzero}
    .fil70 {fill:#C3D0DC;fill-rule:nonzero}
    .fil71 {fill:#C2CEDA;fill-rule:nonzero}
    .fil72 {fill:#C0CDD9;fill-rule:nonzero}
    .fil73 {fill:#BFCBD7;fill-rule:nonzero}
    .fil74 {fill:#BEC9D5;fill-rule:nonzero}
    .fil75 {fill:#BBC7D3;fill-rule:nonzero}
    .fil76 {fill:#BAC5D1;fill-rule:nonzero}
    .fil77 {fill:#B8C3CE;fill-rule:nonzero}
    .fil78 {fill:#B7C2CC;fill-rule:nonzero}
    .fil79 {fill:#B4BFCA;fill-rule:nonzero}
    .fil80 {fill:#B3BDC8;fill-rule:nonzero}
    .fil81 {fill:#B1BBC6;fill-rule:nonzero}
    .fil82 {fill:#B0B9C3;fill-rule:nonzero}
    .fil83 {fill:#ADB6C0;fill-rule:nonzero}
    .fil84 {fill:#ABB4BE;fill-rule:nonzero}
    .fil85 {fill:#AAB2BC;fill-rule:nonzero}
    .fil86 {fill:#A8B0BA;fill-rule:nonzero}
    .fil87 {fill:#A5AEB7;fill-rule:nonzero}
    .fil88 {fill:#A4ACB4;fill-rule:nonzero}
    .fil89 {fill:#A2AAB2;fill-rule:nonzero}
    .fil90 {fill:#9FA7AF;fill-rule:nonzero}
    .fil91 {fill:#9EA5AD;fill-rule:nonzero}
    .fil92 {fill:#9CA3AB;fill-rule:nonzero}
    .fil93 {fill:#99A0A8;fill-rule:nonzero}
    .fil94 {fill:#989EA5;fill-rule:nonzero}
    .fil95 {fill:#969CA3;fill-rule:nonzero}
    .fil96 {fill:#949AA1;fill-rule:nonzero}
    .fil97 {fill:#92989E;fill-rule:nonzero}
    .fil98 {fill:#90969C;fill-rule:nonzero}
    .fil99 {fill:#8E9399;fill-rule:nonzero}
    .fil100 {fill:#8D9297;fill-rule:nonzero}
    .fil101 {fill:#8A8F94;fill-rule:nonzero}
    .fil102 {fill:#888D92;fill-rule:nonzero}
    .fil103 {fill:#878B90;fill-rule:nonzero}
    .fil104 {fill:#85898D;fill-rule:nonzero}
    .fil105 {fill:#83878B;fill-rule:nonzero}
    .fil106 {fill:#818488;fill-rule:nonzero}
    .fil107 {fill:#7F8386;fill-rule:nonzero}
    .fil108 {fill:#7E8084;fill-rule:nonzero}
    .fil109 {fill:#7C7E81;fill-rule:nonzero}
    .fil110 {fill:#7B7D7F;fill-rule:nonzero}
    .fil111 {fill:#797B7D;fill-rule:nonzero}
    .fil112 {fill:#78797B;fill-rule:nonzero}
    .fil113 {fill:#767779;fill-rule:nonzero}
    .fil114 {fill:#757577;fill-rule:nonzero}
    .fil115 {fill:#737476;fill-rule:nonzero}
    .fil116 {fill:#727274;fill-rule:nonzero}
    .fil117 {fill:#707072;fill-rule:nonzero}
    .fil118 {fill:#6F6E70;fill-rule:nonzero}
    .fil119 {fill:#6E6D6E;fill-rule:nonzero}
    .fil120 {fill:#6C6B6D;fill-rule:nonzero}
    .fil121 {fill:#6B6A6B;fill-rule:nonzero}
    .fil122 {fill:#6A6969;fill-rule:nonzero}
    .fil123 {fill:#696768;fill-rule:nonzero}
    .fil124 {fill:#676666;fill-rule:nonzero}
    .fil125 {fill:#666565;fill-rule:nonzero}
    .fil126 {fill:#656364;fill-rule:nonzero}
    .fil127 {fill:#656262;fill-rule:nonzero}
    .fil128 {fill:#646161;fill-rule:nonzero}
    .fil129 {fill:#636060;fill-rule:nonzero}
    .fil130 {fill:#625F5F;fill-rule:nonzero}
    .fil131 {fill:#615E5E;fill-rule:nonzero}
    .fil132 {fill:#605D5D;fill-rule:nonzero}
    .fil133 {fill:#5F5C5C;fill-rule:nonzero}
    .fil134 {fill:#5F5C5B;fill-rule:nonzero}
    .fil135 {fill:#5E5B5A;fill-rule:nonzero}
    .fil136 {fill:#5D5A59;fill-rule:nonzero}
    .fil137 {fill:#5D5959;fill-rule:nonzero}
    .fil138 {fill:#5C5958;fill-rule:nonzero}
    .fil139 {fill:#5C5958;fill-rule:nonzero}
    .fil140 {fill:#5C5857;fill-rule:nonzero}
    .fil141 {fill:#5B5857;fill-rule:nonzero}
    .fil142 {fill:#5B5756;fill-rule:nonzero}
    .fil143 {fill:#5B5756;fill-rule:nonzero}
    .fil144 {fill:#5A5756;fill-rule:nonzero}
    .fil0 {fill:#5A5655;fill-rule:nonzero}
   ]]>
  </style>
     <clipPath id="id0" style="clip-rule:nonzero">
      <path d="M5015.84 1688.61c-248.04,-6.44 -538.13,585.85 -528.49,1114.07 2.24,160.88 53.02,487.17 127.11,896.96 -467.25,483.61 -1009.81,979.92 -1009.81,1631.13 -7.45,596.77 357.28,1357.07 1222.61,1349.76 132.82,-0.91 252.34,-17.37 358.52,-45.7 79.11,433.74 131.72,776.07 131.4,934.21 2.79,623.42 -816.3,685.12 -855.56,326.79 172.63,-5.94 309.97,-143.05 309.97,-312.62 0,-173.22 -143.42,-314.45 -321.4,-314.45 -97.85,0 -185.06,42.96 -244.2,110.15 -1.37,1.37 -2.97,2.74 -4.3,4.11 -13.34,14.17 -24.58,31.08 -35.69,50.28 -36.47,61.7 -60.15,150.37 -61.43,276.97 0,521.96 1319.74,857.89 1319.74,-171.39 2.05,-138.49 -57.5,-489.96 -144.25,-932.85 941.66,-340.5 705.1,-1738.62 -161.38,-1745.2 -67.19,0.68 -131.96,8.5 -194.25,24.31 -49.36,-237.53 -96.99,-468.07 -138.58,-679.91 329.03,-323.18 616.34,-741.52 609.89,-1512.52 1.01,-553.67 -183.46,-997.65 -379.9,-1004.1l0 0zm58.55 535.62c112.25,-10.83 201.37,93.38 201.37,322.77 9.1,393.98 -266.91,738.05 -595.58,1084.08 -31.44,-189.54 -52.06,-343.11 -54.3,-434.2 9.33,-615.46 261.39,-954.6 448.51,-972.65zm-352.8 2042.43c40.08,206.36 83.37,423.78 127.11,642.75 -573.51,204.03 -848.75,1003.41 -35.7,1361.15 -495.58,-421.91 -251.65,-921.33 105.67,-1008.35 89.86,448.64 177.61,891.34 248.54,1273.9 -96.3,33.82 -208.69,53.47 -339.95,54.39 -328.21,0 -984.08,-208.88 -984.08,-999.81 0,-662.45 459.2,-931.65 878.41,-1324.03l0 0zm278.53 981.24c14.3,-0.87 29.8,-0.5 44.24,0 597.05,0 822.24,948.16 214.26,1251.18 -75.64,-380.26 -167.37,-816.29 -258.5,-1251.18z"/>
     </clipPath>
 </defs>
 <g id="Warstwa_x0020_1">
  <metadata id="CorelCorpID_0Corel-Layer"/>
  <g id="rickvanderzwet_Treble_clef_1.svg">
   <g>
    <g style="clip-path:url(#id0)">
     <polygon id="path26" class="fil0" points="5148.6,11253.85 3325.46,5977.34 4629.12,-82.62 6452.26,5193.89 "/>
     <path id="1" class="fil1" d="M2328.75 -1791.77c357.16,-1660.25 1013.64,-1944.15 1466.29,-634.11 452.64,1310.04 530.04,3717.94 172.88,5378.18 -357.17,1660.25 -1013.65,1944.15 -1466.29,634.11 -452.64,-1310.04 -530.04,-3717.93 -172.88,-5378.18zm-14.81 -42.87c-363.62,1690.26 -284.82,4141.67 176,5475.38 460.83,1333.71 1129.17,1044.68 1492.79,-645.57 363.62,-1690.25 284.82,-4141.66 -176.01,-5475.37 -460.82,-1333.72 -1129.16,-1044.69 -1492.78,645.56z"/>
     <path id="2" class="fil1" d="M2318.88 -1820.35c361.46,-1680.25 1025.85,-1967.57 1483.95,-641.74 458.09,1325.82 536.43,3762.72 174.96,5442.97 -361.47,1680.25 -1025.85,1967.57 -1483.95,641.75 -458.1,-1325.82 -536.43,-3762.73 -174.96,-5442.98zm-14.82 -42.86c-367.92,1710.25 -288.19,4190.67 178.09,5540.17 466.28,1349.5 1142.53,1057.05 1510.45,-653.21 367.92,-1710.25 288.19,-4190.67 -178.09,-5540.17 -466.27,-1349.5 -1142.52,-1057.05 -1510.45,653.21z"/>
     <path id="3" class="fil2" d="M2309 -1848.93c365.77,-1700.25 1038.07,-1990.99 1501.62,-649.38 463.55,1341.6 542.82,3807.52 177.05,5507.77 -365.78,1700.25 -1038.07,1991 -1501.62,649.39 -463.55,-1341.61 -542.82,-3807.52 -177.05,-5507.78zm-14.81 -42.86c-372.23,1730.25 -291.56,4239.69 180.17,5604.97 471.73,1365.28 1155.89,1069.41 1528.12,-660.85 372.22,-1730.26 291.56,-4239.69 -180.17,-5604.97 -471.73,-1365.28 -1155.9,-1069.41 -1528.12,660.85z"/>
     <path id="4" class="fil3" d="M2299.13 -1877.5c370.07,-1720.26 1050.28,-2014.42 1519.28,-657.03 469,1357.39 549.2,3852.31 179.13,5572.57 -370.07,1720.26 -1050.28,2014.42 -1519.28,657.03 -469.01,-1357.39 -549.21,-3852.32 -179.13,-5572.57zm-14.82 -42.87c-376.52,1750.26 -294.93,4288.7 182.26,5669.77 477.18,1381.06 1169.25,1081.77 1545.78,-668.49 376.53,-1750.26 294.93,-4288.7 -182.25,-5669.77 -477.19,-1381.07 -1169.26,-1081.77 -1545.79,668.49z"/>
     <path id="5" class="fil4" d="M2289.25 -1906.08c374.38,-1740.26 1062.49,-2037.84 1536.95,-664.67 474.46,1373.17 555.59,3897.11 181.21,5637.37 -374.37,1740.26 -1062.49,2037.84 -1536.95,664.67 -474.45,-1373.18 -555.58,-3897.11 -181.21,-5637.37zm-14.81 -42.87c-380.83,1770.26 -298.3,4337.72 184.34,5734.56 482.63,1396.85 1182.61,1094.14 1563.45,-676.12 380.83,-1770.27 298.3,-4337.72 -184.34,-5734.57 -482.64,-1396.85 -1182.62,-1094.13 -1563.45,676.13z"/>
     <path id="6" class="fil4" d="M2279.38 -1934.66c378.68,-1760.26 1074.7,-2061.27 1554.61,-672.31 479.91,1388.96 561.98,3941.9 183.3,5702.17 -378.68,1760.26 -1074.71,2061.26 -1554.62,672.3 -479.91,-1388.95 -561.97,-3941.9 -183.29,-5702.16zm-14.81 -42.87c-385.14,1790.27 -301.68,4386.73 186.42,5799.36 488.09,1412.64 1195.98,1106.5 1581.11,-683.76 385.13,-1790.27 301.67,-4386.73 -186.42,-5799.37 -488.09,-1412.63 -1195.98,-1106.5 -1581.11,683.77z"/>
     <path id="7" class="fil4" d="M2269.5 -1963.24c382.99,-1780.27 1086.92,-2084.69 1572.29,-679.95 485.36,1404.74 568.36,3986.7 185.37,5766.97 -382.98,1780.26 -1086.91,2084.68 -1572.28,679.94 -485.36,-1404.74 -568.36,-3986.69 -185.38,-5766.96zm-14.81 -42.87c-389.44,1810.27 -305.04,4435.75 188.5,5864.16 493.55,1428.42 1209.35,1118.86 1598.78,-691.41 389.44,-1810.27 305.05,-4435.74 -188.5,-5864.16 -493.54,-1428.41 -1209.34,-1118.86 -1598.78,691.41z"/>
     <path id="8" class="fil5" d="M2259.63 -1991.82c387.28,-1800.27 1099.13,-2108.11 1589.95,-687.59 490.81,1420.53 574.74,4031.5 187.46,5831.76 -387.29,1800.27 -1099.13,2108.12 -1589.95,687.59 -490.82,-1420.52 -574.75,-4031.49 -187.46,-5831.76zm-14.81 -42.87c-393.74,1830.28 -308.42,4484.76 190.58,5928.96 499,1444.2 1222.71,1131.23 1616.45,-699.05 393.74,-1830.27 308.41,-4484.75 -190.59,-5928.95 -498.99,-1444.2 -1222.7,-1131.23 -1616.44,699.04z"/>
     <path id="9" class="fil5" d="M2249.75 -2020.4c391.59,-1820.27 1111.35,-2131.53 1607.62,-695.22 496.27,1436.3 581.13,4076.28 189.54,5896.55 -391.59,1820.27 -1111.34,2131.54 -1607.61,695.23 -496.27,-1436.31 -581.14,-4076.29 -189.55,-5896.56zm-14.81 -42.87c-398.04,1850.28 -311.78,4533.78 192.67,5993.76 504.45,1459.98 1236.07,1143.59 1634.11,-706.69 398.05,-1850.27 311.79,-4533.77 -192.66,-5993.75 -504.46,-1459.99 -1236.07,-1143.59 -1634.12,706.68z"/>
     <path id="10" class="fil6" d="M2239.88 -2048.98c395.89,-1840.27 1123.55,-2154.95 1625.28,-702.86 501.72,1452.09 587.52,4121.08 191.63,5961.35 -395.9,1840.28 -1123.56,2154.96 -1625.28,702.87 -501.73,-1452.09 -587.52,-4121.08 -191.63,-5961.36zm-14.81 -42.86c-402.35,1870.27 -315.16,4582.78 194.75,6058.55 509.9,1475.76 1249.43,1155.95 1651.78,-714.33 402.35,-1870.28 315.15,-4582.78 -194.75,-6058.55 -509.91,-1475.77 -1249.44,-1155.95 -1651.78,714.33z"/>
     <path id="11" class="fil6" d="M2230 -2077.56c400.2,-1860.27 1135.77,-2178.38 1642.95,-710.5 507.18,1467.87 593.91,4165.87 193.71,6026.15 -400.19,1860.28 -1135.77,2178.38 -1642.95,710.51 -507.17,-1467.88 -593.9,-4165.88 -193.71,-6026.16zm-14.81 -42.86c-406.65,1890.28 -318.52,4631.8 196.84,6123.35 515.36,1491.55 1262.79,1168.31 1669.44,-721.97 406.65,-1890.28 318.53,-4631.8 -196.83,-6123.35 -515.36,-1491.55 -1262.8,-1168.32 -1669.45,721.97z"/>
     <path id="12" class="fil6" d="M2220.13 -2106.13c404.5,-1880.28 1147.98,-2201.81 1660.61,-718.15 512.64,1483.66 600.29,4210.67 195.8,6090.95 -404.5,1880.28 -1147.98,2201.8 -1660.62,718.15 -512.63,-1483.66 -600.29,-4210.67 -195.79,-6090.95zm-14.81 -42.87c-410.95,1910.28 -321.9,4680.81 198.92,6188.14 520.81,1507.34 1276.15,1180.68 1687.11,-729.6 410.95,-1910.29 321.89,-4680.81 -198.92,-6188.15 -520.81,-1507.33 -1276.16,-1180.68 -1687.11,729.61z"/>
     <path id="13" class="fil7" d="M2210.26 -2134.71c408.8,-1900.29 1160.19,-2225.23 1678.27,-725.79 518.09,1499.44 606.68,4255.47 197.88,6155.75 -408.8,1900.28 -1160.19,2225.23 -1678.28,725.78 -518.08,-1499.44 -606.68,-4255.46 -197.87,-6155.74zm-14.82 -42.87c-415.25,1930.29 -325.26,4729.83 201,6252.94 526.27,1523.12 1289.53,1193.04 1704.78,-737.24 415.26,-1930.29 325.27,-4729.83 -201,-6252.95 -526.26,-1523.11 -1289.52,-1193.04 -1704.78,737.25z"/>
     <path id="14" class="fil8" d="M2200.38 -2163.29c413.11,-1920.29 1172.41,-2248.65 1695.95,-733.43 523.54,1515.23 613.06,4300.26 199.95,6220.55 -413.1,1920.28 -1172.4,2248.65 -1695.94,733.42 -523.54,-1515.22 -613.06,-4300.26 -199.96,-6220.54zm-14.81 -42.87c-419.56,1950.29 -328.64,4778.84 203.08,6317.74 531.72,1538.9 1302.89,1205.41 1722.45,-744.88 419.56,-1950.3 328.63,-4778.84 -203.09,-6317.75 -531.72,-1538.9 -1302.88,-1205.4 -1722.44,744.89z"/>
     <path id="15" class="fil9" d="M2190.51 -2191.87c417.41,-1940.29 1184.61,-2272.08 1713.61,-741.07 528.99,1531.01 619.45,4345.06 202.04,6285.35 -417.41,1940.28 -1184.62,2272.07 -1713.61,741.06 -528.99,-1531.01 -619.45,-4345.05 -202.04,-6285.34zm-14.81 -42.87c-423.87,1970.3 -332.01,4827.86 205.16,6382.54 537.17,1554.68 1316.25,1217.77 1740.11,-752.53 423.86,-1970.29 332.01,-4827.85 -205.16,-6382.53 -537.18,-1554.69 -1316.25,-1217.77 -1740.11,752.52z"/>
     <path id="16" class="fil9" d="M2180.63 -2220.45c421.71,-1960.29 1196.83,-2295.5 1731.28,-748.71 534.45,1546.8 625.84,4389.85 204.12,6350.14 -421.71,1960.3 -1196.83,2295.5 -1731.27,748.71 -534.45,-1546.79 -625.84,-4389.85 -204.13,-6350.14zm-14.81 -42.87c-428.17,1990.3 -335.38,4876.87 207.25,6447.34 542.63,1570.47 1329.61,1230.13 1757.78,-760.17 428.16,-1990.29 335.37,-4876.86 -207.25,-6447.33 -542.63,-1570.47 -1329.61,-1230.13 -1757.78,760.16z"/>
     <path id="17" class="fil10" d="M2170.76 -2249.03c426.01,-1980.29 1209.04,-2318.92 1748.94,-756.34 539.9,1562.57 632.22,4434.64 206.21,6414.93 -426.02,1980.3 -1209.05,2318.93 -1748.94,756.35 -539.9,-1562.58 -632.23,-4434.64 -206.21,-6414.94zm-14.81 -42.87c-432.47,2010.3 -338.75,4925.89 209.33,6512.14 548.08,1586.25 1342.97,1242.49 1775.44,-767.81 432.47,-2010.3 338.75,-4925.88 -209.33,-6512.13 -548.08,-1586.25 -1342.97,-1242.5 -1775.44,767.8z"/>
     <path id="18" class="fil10" d="M2160.88 -2277.61c430.32,-2000.29 1221.26,-2342.34 1766.61,-763.98 545.36,1578.36 638.61,4479.43 208.29,6479.73 -430.32,2000.3 -1221.25,2342.35 -1766.61,763.99 -545.35,-1578.36 -638.6,-4479.44 -208.29,-6479.74zm-14.81 -42.86c-436.77,2030.3 -342.12,4974.89 211.42,6576.93 553.53,1602.03 1356.33,1254.85 1793.1,-775.45 436.78,-2030.3 342.12,-4974.89 -211.41,-6576.93 -553.53,-1602.04 -1356.34,-1254.86 -1793.11,775.45z"/>
     <path id="19" class="fil11" d="M2151.01 -2306.19c434.62,-2020.3 1233.47,-2365.76 1784.27,-771.62 550.81,1594.14 645,4524.23 210.38,6544.53 -434.62,2020.3 -1233.47,2365.77 -1784.28,771.63 -550.81,-1594.15 -644.99,-4524.23 -210.37,-6544.54zm-14.81 -42.86c-441.08,2050.3 -345.49,5023.91 213.49,6641.72 558.99,1617.82 1369.7,1267.22 1810.78,-783.08 441.07,-2050.31 345.49,-5023.91 -213.5,-6641.73 -558.99,-1617.82 -1369.7,-1267.22 -1810.77,783.09z"/>
     <path id="20" class="fil11" d="M2141.13 -2334.76c438.93,-2040.31 1245.69,-2389.2 1801.95,-779.27 556.26,1609.93 651.38,4569.03 212.45,6609.33 -438.92,2040.3 -1245.68,2389.19 -1801.94,779.27 -556.26,-1609.93 -651.38,-4569.03 -212.46,-6609.33zm-14.81 -42.87c-445.38,2070.31 -348.86,5072.92 215.58,6706.52 564.44,1633.61 1383.06,1279.59 1828.44,-790.72 445.38,-2070.31 348.86,-5072.92 -215.58,-6706.53 -564.44,-1633.6 -1383.06,-1279.58 -1828.44,790.73z"/>
     <path id="21" class="fil12" d="M2131.26 -2363.34c443.23,-2060.31 1257.89,-2412.62 1819.61,-786.91 561.71,1625.71 657.76,4613.82 214.54,6674.13 -443.23,2060.31 -1257.9,2412.61 -1819.61,786.9 -561.72,-1625.71 -657.77,-4613.82 -214.54,-6674.12zm-14.81 -42.87c-449.68,2090.31 -352.23,5121.94 217.66,6771.32 569.9,1649.39 1396.43,1291.95 1846.11,-798.36 449.68,-2090.32 352.23,-5121.94 -217.67,-6771.33 -569.89,-1649.38 -1396.42,-1291.94 -1846.1,798.37z"/>
     <path id="22" class="fil12" d="M2121.39 -2391.92c447.53,-2080.31 1270.1,-2436.04 1837.27,-794.55 567.17,1641.5 664.15,4658.62 216.62,6738.93 -447.53,2080.31 -1270.11,2436.04 -1837.27,794.54 -567.17,-1641.49 -664.16,-4658.61 -216.62,-6738.92zm-14.82 -42.87c-453.98,2110.32 -355.6,5170.95 219.75,6836.12 575.35,1665.17 1409.79,1304.31 1863.77,-806 453.99,-2110.32 355.6,-5170.95 -219.74,-6836.12 -575.35,-1665.17 -1409.79,-1304.31 -1863.78,806z"/>
     <path id="23" class="fil13" d="M2111.51 -2420.5c451.83,-2100.31 1282.32,-2459.46 1854.94,-802.19 572.62,1657.28 670.54,4703.41 218.71,6803.73 -451.84,2100.31 -1282.32,2459.46 -1854.94,802.18 -572.63,-1657.28 -670.54,-4703.41 -218.71,-6803.72zm-14.81 -42.87c-458.29,2130.32 -358.97,5219.97 221.83,6900.92 580.8,1680.95 1423.15,1316.67 1881.44,-813.65 458.29,-2130.31 358.97,-5219.96 -221.83,-6900.91 -580.8,-1680.96 -1423.15,-1316.68 -1881.44,813.64z"/>
     <path id="24" class="fil13" d="M2101.64 -2449.08c456.13,-2120.31 1294.53,-2482.89 1872.6,-809.82 578.08,1673.06 676.93,4748.2 220.79,6868.51 -456.14,2120.32 -1294.53,2482.89 -1872.61,809.83 -578.07,-1673.06 -676.92,-4748.2 -220.78,-6868.52zm-14.82 -42.87c-462.59,2150.32 -362.34,5268.98 223.92,6965.72 586.25,1696.73 1436.51,1329.03 1899.1,-821.29 462.59,-2150.32 362.34,-5268.97 -223.91,-6965.71 -586.26,-1696.74 -1436.51,-1329.04 -1899.11,821.28z"/>
     <path id="25" class="fil14" d="M2091.76 -2477.66c460.44,-2140.32 1306.75,-2506.31 1890.27,-817.46 583.53,1688.84 683.31,4792.99 222.87,6933.31 -460.44,2140.32 -1306.74,2506.31 -1890.27,817.47 -583.53,-1688.85 -683.31,-4793 -222.87,-6933.32zm-14.81 -42.87c-466.89,2170.33 -365.71,5318 225.99,7030.52 591.71,1712.52 1449.88,1341.39 1916.78,-828.93 466.89,-2170.32 365.71,-5317.99 -226,-7030.51 -591.71,-1712.52 -1449.87,-1341.4 -1916.77,828.92z"/>
     <path id="26" class="fil14" d="M2081.89 -2506.24c464.74,-2160.32 1318.95,-2529.73 1907.94,-825.1 588.98,1704.63 689.69,4837.79 224.95,6998.11 -464.74,2160.32 -1318.96,2529.74 -1907.94,825.11 -588.98,-1704.63 -689.7,-4837.79 -224.95,-6998.12zm-14.81 -42.86c-471.2,2190.32 -369.09,5367 228.07,7095.3 597.17,1728.31 1463.24,1353.77 1934.44,-836.56 471.2,-2190.33 369.08,-5367 -228.08,-7095.31 -597.16,-1728.3 -1463.24,-1353.76 -1934.43,836.57z"/>
     <path id="27" class="fil15" d="M2072.01 -2534.82c469.05,-2180.32 1331.17,-2553.15 1925.61,-832.74 594.43,1720.41 696.08,4882.59 227.03,7062.91 -469.04,2180.33 -1331.17,2553.16 -1925.6,832.75 -594.44,-1720.42 -696.08,-4882.59 -227.04,-7062.92zm-14.81 -42.86c-475.5,2210.33 -372.45,5416.02 230.16,7160.1 602.62,1744.09 1476.6,1366.13 1952.1,-844.2 475.51,-2210.33 372.46,-5416.02 -230.16,-7160.11 -602.61,-1744.09 -1476.6,-1366.12 -1952.1,844.21z"/>
     <path id="28" class="fil15" d="M2062.14 -2563.39c473.35,-2200.33 1343.38,-2576.58 1943.27,-840.39 599.89,1736.2 702.47,4927.38 229.12,7127.71 -473.35,2200.33 -1343.38,2576.58 -1943.27,840.38 -599.89,-1736.19 -702.47,-4927.38 -229.12,-7127.7zm-14.81 -42.87c-479.81,2230.33 -375.83,5465.03 232.24,7224.9 608.07,1759.87 1489.96,1378.49 1969.77,-851.84 479.8,-2230.33 375.82,-5465.03 -232.24,-7224.91 -608.07,-1759.87 -1489.97,-1378.48 -1969.77,851.85z"/>
     <path id="29" class="fil16" d="M2052.26 -2591.97c477.66,-2220.33 1355.6,-2600.01 1960.94,-848.03 605.34,1751.98 708.86,4972.18 231.2,7192.51 -477.65,2220.33 -1355.59,2600 -1960.93,848.02 -605.35,-1751.98 -708.86,-4972.17 -231.21,-7192.5zm-14.81 -42.87c-484.11,2250.33 -379.19,5514.05 234.33,7289.7 613.52,1775.66 1503.33,1390.85 1987.43,-859.48 484.11,-2250.34 379.2,-5514.05 -234.32,-7289.7 -613.53,-1775.66 -1503.33,-1390.86 -1987.44,859.48z"/>
     <path id="30" class="fil17" d="M2042.39 -2620.55c481.96,-2240.34 1367.81,-2623.43 1978.6,-855.67 610.8,1767.77 715.24,5016.97 233.29,7257.31 -481.96,2240.33 -1367.81,2623.42 -1978.61,855.66 -610.79,-1767.76 -715.24,-5016.97 -233.28,-7257.3zm-14.81 -42.87c-488.41,2270.34 -382.57,5563.06 236.41,7354.5 618.97,1791.44 1516.69,1403.21 2005.1,-867.13 488.41,-2270.33 382.57,-5563.05 -236.41,-7354.49 -618.98,-1791.44 -1516.69,-1403.22 -2005.1,867.12z"/>
     <path id="31" class="fil18" d="M2032.51 -2649.13c486.26,-2260.34 1380.02,-2646.85 1996.27,-863.3 616.25,1783.54 721.63,5061.76 235.37,7322.1 -486.26,2260.33 -1380.02,2646.85 -1996.27,863.3 -616.25,-1783.55 -721.62,-5061.76 -235.37,-7322.1zm-14.81 -42.87c-492.71,2290.34 -385.93,5612.08 238.5,7419.3 624.42,1807.22 1530.05,1415.58 2022.76,-874.77 492.72,-2290.34 385.94,-5612.07 -238.49,-7419.29 -624.43,-1807.22 -1530.05,-1415.58 -2022.77,874.76z"/>
     <path id="32" class="fil19" d="M2022.64 -2677.71c490.56,-2280.34 1392.23,-2670.27 2013.93,-870.94 621.71,1799.33 728.02,5106.55 237.46,7386.89 -490.57,2280.34 -1392.24,2670.28 -2013.94,870.95 -621.7,-1799.33 -728.01,-5106.56 -237.45,-7386.9zm-14.81 -42.87c-497.02,2310.35 -389.31,5661.09 240.57,7484.1 629.89,1823 1543.42,1427.94 2040.44,-882.41 497.01,-2310.34 389.31,-5661.08 -240.58,-7484.09 -629.88,-1823.01 -1543.41,-1427.94 -2040.43,882.4z"/>
     <path id="33" class="fil19" d="M2012.77 -2706.29c494.86,-2300.34 1404.44,-2693.7 2031.6,-878.58 627.15,1815.11 734.4,5151.35 239.53,7451.69 -494.87,2300.35 -1404.44,2693.7 -2031.6,878.59 -627.16,-1815.12 -734.4,-5151.35 -239.53,-7451.7zm-14.82 -42.87c-501.32,2330.35 -392.67,5710.11 242.66,7548.89 635.34,1838.79 1556.78,1440.31 2058.1,-890.04 501.32,-2330.35 392.68,-5710.1 -242.66,-7548.89 -635.33,-1838.79 -1556.78,-1440.3 -2058.1,890.04z"/>
     <path id="34" class="fil20" d="M2002.89 -2734.87c499.17,-2320.34 1416.66,-2717.12 2049.27,-886.22 632.61,1830.9 740.78,5196.15 241.61,7516.49 -499.16,2320.35 -1416.65,2717.12 -2049.26,886.23 -632.61,-1830.9 -740.79,-5196.15 -241.62,-7516.5zm-14.81 -42.86c-505.62,2350.35 -396.05,5759.11 244.74,7613.68 640.79,1854.58 1570.14,1452.67 2075.77,-897.68 505.62,-2350.35 396.05,-5759.11 -244.74,-7613.69 -640.79,-1854.57 -1570.15,-1452.66 -2075.77,897.69z"/>
     <path id="35" class="fil20" d="M1993.02 -2763.44c503.47,-2340.35 1428.87,-2740.55 2066.93,-893.87 638.06,1846.68 747.17,5240.94 243.7,7581.29 -503.47,2340.35 -1428.87,2740.55 -2066.93,893.86 -638.07,-1846.68 -747.18,-5240.94 -243.7,-7581.28zm-14.81 -42.87c-509.93,2370.35 -399.42,5808.13 246.82,7678.48 646.24,1870.36 1583.5,1465.03 2093.43,-905.32 509.93,-2370.35 399.42,-5808.13 -246.82,-7678.49 -646.25,-1870.35 -1583.51,-1465.03 -2093.43,905.33z"/>
     <path id="36" class="fil21" d="M1983.14 -2792.02c507.78,-2360.36 1441.08,-2763.97 2084.6,-901.51 643.52,1862.47 753.56,5285.74 245.78,7646.09 -507.77,2360.35 -1441.08,2763.97 -2084.6,901.5 -643.51,-1862.46 -753.55,-5285.73 -245.78,-7646.08zm-14.81 -42.87c-514.23,2390.35 -402.79,5857.14 248.91,7743.28 651.69,1886.14 1596.87,1477.39 2111.1,-912.96 514.23,-2390.36 402.79,-5857.14 -248.91,-7743.29 -651.7,-1886.14 -1596.87,-1477.39 -2111.1,912.97z"/>
     <path id="37" class="fil21" d="M1973.27 -2820.6c512.08,-2380.36 1453.29,-2787.39 2102.26,-909.15 648.97,1878.25 759.95,5330.53 247.87,7710.89 -512.08,2380.35 -1453.3,2787.39 -2102.27,909.14 -648.97,-1878.25 -759.94,-5330.53 -247.86,-7710.88zm-14.81 -42.87c-518.54,2410.36 -406.17,5906.16 250.99,7808.08 657.15,1901.92 1610.23,1489.76 2128.76,-920.6 518.53,-2410.36 406.16,-5906.16 -250.99,-7808.08 -657.15,-1901.93 -1610.23,-1489.76 -2128.76,920.6z"/>
     <path id="38" class="fil22" d="M1963.39 -2849.18c516.38,-2400.36 1465.51,-2810.82 2119.93,-916.78 654.43,1894.03 766.33,5375.32 249.95,7775.68 -516.38,2400.35 -1465.5,2810.81 -2119.93,916.78 -654.42,-1894.03 -766.33,-5375.32 -249.95,-7775.68zm-14.81 -42.87c-522.83,2430.36 -409.53,5955.17 253.07,7872.88 662.61,1917.71 1623.6,1502.12 2146.43,-928.25 522.84,-2430.36 409.54,-5955.16 -253.07,-7872.87 -662.6,-1917.71 -1623.59,-1502.12 -2146.43,928.24z"/>
     <path id="39" class="fil23" d="M1953.52 -2877.76c520.68,-2420.36 1477.72,-2834.24 2137.6,-924.42 659.87,1909.81 772.71,5420.11 252.03,7840.48 -520.69,2420.36 -1477.72,2834.23 -2137.6,924.42 -659.88,-1909.82 -772.72,-5420.12 -252.03,-7840.48zm-14.81 -42.87c-527.14,2450.37 -412.91,6004.19 255.15,7937.68 668.06,1933.49 1636.96,1514.48 2164.1,-935.89 527.14,-2450.36 412.9,-6004.18 -255.16,-7937.67 -668.05,-1933.49 -1636.95,-1514.48 -2164.09,935.88z"/>
     <path id="40" class="fil24" d="M1943.64 -2906.34c524.99,-2440.36 1489.94,-2857.66 2155.27,-932.06 665.33,1925.6 779.1,5464.91 254.11,7905.27 -524.99,2440.37 -1489.93,2857.67 -2155.26,932.07 -665.33,-1925.6 -779.1,-5464.92 -254.12,-7905.28zm-14.81 -42.87c-531.44,2470.37 -416.27,6053.2 257.24,8002.48 673.51,1949.27 1650.32,1526.84 2181.76,-943.53 531.45,-2470.37 416.28,-6053.19 -257.23,-8002.47 -673.52,-1949.27 -1650.32,-1526.84 -2181.77,943.52z"/>
     <path id="41" class="fil25" d="M1933.77 -2934.92c529.29,-2460.36 1502.14,-2881.08 2172.93,-939.7 670.78,1941.38 785.49,5509.71 256.2,7970.07 -529.29,2460.37 -1502.15,2881.09 -2172.93,939.71 -670.79,-1941.39 -785.49,-5509.71 -256.2,-7970.08zm-14.81 -42.87c-535.75,2490.38 -419.65,6102.22 259.32,8067.27 678.96,1965.06 1663.68,1539.21 2199.43,-951.16 535.74,-2490.37 419.64,-6102.21 -259.32,-8067.27 -678.97,-1965.06 -1663.69,-1539.21 -2199.43,951.16z"/>
     <path id="42" class="fil25" d="M1923.9 -2963.5c533.59,-2480.37 1514.35,-2904.51 2190.59,-947.34 676.24,1957.17 791.87,5554.5 258.28,8034.87 -533.59,2480.37 -1514.36,2904.51 -2190.59,947.34 -676.24,-1957.16 -791.88,-5554.5 -258.28,-8034.87zm-14.82 -42.86c-540.05,2510.37 -423.01,6151.22 261.41,8132.06 684.42,1980.84 1677.04,1551.57 2217.09,-958.8 540.05,-2510.37 423.02,-6151.22 -261.4,-8132.07 -684.42,-1980.84 -1677.05,-1551.57 -2217.1,958.81z"/>
     <path id="43" class="fil26" d="M1914.02 -2992.07c537.9,-2500.38 1526.57,-2927.94 2208.26,-954.99 681.69,1972.95 798.26,5599.3 260.37,8099.67 -537.9,2500.37 -1526.57,2927.93 -2208.27,954.98 -681.69,-1972.95 -798.26,-5599.29 -260.36,-8099.66zm-14.81 -42.87c-544.35,2530.37 -426.39,6200.24 263.49,8196.86 689.87,1996.63 1690.4,1563.94 2234.76,-966.44 544.35,-2530.38 426.38,-6200.24 -263.49,-8196.87 -689.87,-1996.62 -1690.41,-1563.93 -2234.76,966.45z"/>
     <path id="44" class="fil27" d="M1904.15 -3020.65c542.2,-2520.38 1538.78,-2951.36 2225.92,-962.63 687.15,1988.74 804.65,5644.09 262.45,8164.47 -542.2,2520.37 -1538.78,2951.36 -2225.93,962.62 -687.14,-1988.73 -804.64,-5644.09 -262.44,-8164.46zm-14.82 -42.87c-548.65,2550.38 -429.75,6249.25 265.57,8261.66 695.33,2012.41 1703.78,1576.3 2252.43,-974.08 548.66,-2550.38 429.76,-6249.25 -265.57,-8261.66 -695.32,-2012.41 -1703.77,-1576.3 -2252.43,974.08z"/>
     <path id="45" class="fil28" d="M1894.27 -3049.23c546.51,-2540.38 1551,-2974.78 2243.6,-970.26 692.59,2004.51 811.03,5688.88 264.52,8229.26 -546.5,2540.38 -1550.99,2974.78 -2243.59,970.26 -692.6,-2004.52 -811.03,-5688.88 -264.53,-8229.26zm-14.81 -42.87c-552.96,2570.38 -433.13,6298.27 267.65,8326.46 700.78,2028.19 1717.14,1588.66 2270.1,-981.72 552.95,-2570.39 433.12,-6298.27 -267.66,-8326.46 -700.78,-2028.2 -1717.13,-1588.66 -2270.09,981.72z"/>
     <path id="46" class="fil29" d="M1884.4 -3077.81c550.8,-2560.38 1563.2,-2998.2 2261.26,-977.9 698.05,2020.3 817.42,5733.68 266.61,8294.06 -550.81,2560.38 -1563.21,2998.2 -2261.26,977.9 -698.05,-2020.3 -817.42,-5733.68 -266.61,-8294.06zm-14.81 -42.87c-557.27,2590.39 -436.5,6347.28 269.73,8391.26 706.23,2043.97 1730.5,1601.02 2287.76,-989.37 557.26,-2590.38 436.5,-6347.27 -269.74,-8391.25 -706.23,-2043.98 -1730.49,-1601.03 -2287.75,989.36z"/>
     <path id="47" class="fil29" d="M1874.52 -3106.39c555.11,-2580.38 1575.42,-3021.63 2278.93,-985.54 703.5,2036.08 823.8,5778.47 268.69,8358.86 -555.11,2580.38 -1575.42,3021.62 -2278.92,985.54 -703.51,-2036.09 -823.81,-5778.48 -268.7,-8358.86zm-14.81 -42.87c-561.56,2610.39 -439.87,6396.3 271.82,8456.06 711.69,2059.76 1743.86,1613.38 2305.42,-997.01 561.57,-2610.39 439.87,-6396.29 -271.81,-8456.05 -711.69,-2059.76 -1743.86,-1613.39 -2305.43,997z"/>
     <path id="48" class="fil30" d="M1864.65 -3134.97c559.41,-2600.39 1587.63,-3045.05 2296.59,-993.18 708.96,2051.87 830.19,5823.27 270.78,8423.65 -559.42,2600.39 -1587.63,3045.05 -2296.59,993.19 -708.96,-2051.87 -830.19,-5823.27 -270.78,-8423.66zm-14.81 -42.87c-565.87,2630.4 -443.24,6445.31 273.9,8520.85 717.14,2075.55 1757.22,1625.75 2323.09,-1004.64 565.87,-2630.39 443.24,-6445.3 -273.9,-8520.85 -717.14,-2075.54 -1757.23,-1625.75 -2323.09,1004.64z"/>
     <path id="49" class="fil31" d="M1854.77 -3163.55c563.72,-2620.39 1599.85,-3068.47 2314.26,-1000.82 714.41,2067.65 836.58,5868.06 272.86,8488.45 -563.71,2620.39 -1599.84,3068.48 -2314.26,1000.82 -714.41,-2067.65 -836.57,-5868.06 -272.86,-8488.45zm-14.81 -42.87c-570.17,2650.4 -446.61,6494.32 275.99,8585.65 722.59,2091.33 1770.58,1638.12 2340.75,-1012.28 570.18,-2650.39 446.61,-6494.32 -275.98,-8585.65 -722.59,-2091.32 -1770.59,-1638.11 -2340.76,1012.28z"/>
     <path id="50" class="fil31" d="M1844.9 -3192.13c568.02,-2640.39 1612.06,-3091.89 2331.92,-1008.46 719.87,2083.44 842.97,5912.86 274.95,8553.25 -568.02,2640.4 -1612.06,3091.9 -2331.93,1008.46 -719.86,-2083.43 -842.96,-5912.85 -274.94,-8553.25zm-14.81 -42.86c-574.48,2670.39 -449.98,6543.33 278.07,8650.44 728.04,2107.11 1783.94,1650.48 2358.42,-1019.92 574.47,-2670.4 449.98,-6543.33 -278.07,-8650.45 -728.05,-2107.11 -1783.95,-1650.47 -2358.42,1019.93z"/>
     <path id="51" class="fil32" d="M1835.03 -3220.7c572.32,-2660.4 1624.27,-3115.33 2349.59,-1016.11 725.32,2099.22 849.34,5957.65 277.02,8618.05 -572.32,2660.4 -1624.27,3115.32 -2349.59,1016.1 -725.32,-2099.22 -849.35,-5957.65 -277.02,-8618.04zm-14.82 -42.87c-578.77,2690.4 -453.35,6592.34 280.15,8715.24 733.5,2122.89 1797.32,1662.84 2376.09,-1027.56 578.78,-2690.4 453.35,-6592.35 -280.15,-8715.24 -733.5,-2122.9 -1797.31,-1662.84 -2376.09,1027.56z"/>
     <path id="52" class="fil33" d="M1825.15 -3249.28c576.63,-2680.4 1636.48,-3138.75 2367.26,-1023.74 730.77,2115 855.73,6002.44 279.11,8682.84 -576.63,2680.4 -1636.49,3138.74 -2367.26,1023.74 -730.77,-2115 -855.74,-6002.44 -279.11,-8682.84zm-14.81 -42.87c-583.08,2710.4 -456.72,6641.36 282.23,8780.04 738.96,2138.68 1810.68,1675.2 2393.76,-1035.2 583.08,-2710.41 456.72,-6641.36 -282.24,-8780.04 -738.95,-2138.68 -1810.67,-1675.21 -2393.75,1035.2z"/>
     <path id="53" class="fil34" d="M1815.28 -3277.86c580.93,-2700.4 1648.69,-3162.17 2384.92,-1031.38 736.23,2130.78 862.12,6047.24 281.19,8747.64 -580.93,2700.4 -1648.7,3162.17 -2384.92,1031.38 -736.23,-2130.79 -862.12,-6047.24 -281.19,-8747.64zm-14.82 -42.87c-587.38,2730.41 -460.09,6690.37 284.32,8844.84 744.41,2154.46 1824.04,1687.56 2411.42,-1042.84 587.39,-2730.41 460.09,-6690.38 -284.31,-8844.84 -744.41,-2154.46 -1824.04,-1687.57 -2411.43,1042.84z"/>
     <path id="54" class="fil35" d="M1805.4 -3306.44c585.23,-2720.41 1660.91,-3185.59 2402.59,-1039.02 741.68,2146.57 868.51,6092.03 283.27,8812.44 -585.23,2720.4 -1660.9,3185.59 -2402.58,1039.02 -741.68,-2146.57 -868.51,-6092.04 -283.28,-8812.44zm-14.81 -42.87c-591.69,2750.41 -463.46,6739.39 286.4,8909.64 749.86,2170.24 1837.4,1699.92 2429.09,-1050.49 591.68,-2750.41 463.46,-6739.38 -286.4,-8909.63 -749.86,-2170.25 -1837.4,-1699.93 -2429.09,1050.48z"/>
     <path id="55" class="fil36" d="M1795.53 -3335.02c589.53,-2740.41 1673.12,-3209.01 2420.25,-1046.66 747.14,2162.35 874.89,6136.83 285.36,8877.24 -589.54,2740.4 -1673.12,3209.01 -2420.26,1046.66 -747.13,-2162.36 -874.89,-6136.83 -285.35,-8877.24zm-14.81 -42.87c-596,2770.41 -466.84,6788.4 288.48,8974.43 755.31,2186.03 1850.76,1712.3 2446.75,-1058.12 595.99,-2770.41 466.83,-6788.4 -288.48,-8974.43 -755.32,-2186.03 -1850.76,-1712.29 -2446.75,1058.12z"/>
     <path id="56" class="fil37" d="M1785.65 -3363.6c593.84,-2760.41 1685.34,-3232.44 2437.92,-1054.3 752.59,2178.14 881.28,6181.62 287.44,8942.03 -593.84,2760.42 -1685.33,3232.44 -2437.92,1054.3 -752.58,-2178.13 -881.28,-6181.62 -287.44,-8942.03zm-14.81 -42.87c-600.29,2790.42 -470.2,6837.42 290.57,9039.23 760.76,2201.82 1864.12,1724.66 2464.42,-1065.76 600.29,-2790.41 470.2,-6837.41 -290.57,-9039.23 -760.77,-2201.81 -1864.13,-1724.65 -2464.42,1065.76z"/>
     <path id="57" class="fil38" d="M1775.78 -3392.18c598.14,-2780.41 1697.54,-3255.86 2455.58,-1061.94 758.05,2193.92 887.67,6226.42 289.53,9006.83 -598.14,2780.42 -1697.55,3255.86 -2455.59,1061.94 -758.04,-2193.92 -887.66,-6226.41 -289.52,-9006.83zm-14.81 -42.87c-604.6,2810.42 -473.58,6886.43 292.64,9104.03 766.23,2217.6 1877.49,1737.02 2482.09,-1073.4 604.6,-2810.42 473.57,-6886.43 -292.65,-9104.03 -766.22,-2217.59 -1877.49,-1737.01 -2482.08,1073.4z"/>
     <path id="58" class="fil38" d="M1765.9 -3420.76c602.45,-2800.41 1709.76,-3279.28 2473.26,-1069.58 763.49,2209.71 894.05,6271.21 291.6,9071.63 -602.44,2800.42 -1709.76,3279.29 -2473.25,1069.58 -763.5,-2209.7 -894.05,-6271.21 -291.61,-9071.63zm-14.81 -42.86c-608.9,2830.42 -476.94,6935.44 294.73,9168.82 771.68,2233.38 1890.85,1749.38 2499.75,-1081.04 608.9,-2830.42 476.95,-6935.44 -294.73,-9168.82 -771.67,-2233.38 -1890.85,-1749.39 -2499.75,1081.04z"/>
     <path id="59" class="fil39" d="M1756.03 -3449.33c606.75,-2820.43 1721.97,-3302.71 2490.92,-1077.22 768.95,2225.48 900.44,6316 293.69,9136.42 -606.75,2820.42 -1721.97,3302.71 -2490.92,1077.22 -768.95,-2225.49 -900.44,-6316 -293.69,-9136.42zm-14.81 -42.87c-613.21,2850.42 -480.32,6984.45 296.81,9233.62 777.13,2249.16 1904.22,1761.74 2517.42,-1088.68 613.2,-2850.43 480.31,-6984.46 -296.81,-9233.62 -777.13,-2249.17 -1904.22,-1761.75 -2517.42,1088.68z"/>
     <path id="60" class="fil40" d="M1746.15 -3477.91c611.06,-2840.43 1734.19,-3326.14 2508.59,-1084.86 774.4,2241.27 906.82,6360.8 295.77,9201.22 -611.05,2840.42 -1734.18,3326.13 -2508.58,1084.86 -774.41,-2241.27 -906.83,-6360.8 -295.78,-9201.22zm-14.81 -42.87c-617.5,2870.43 -483.68,7033.47 298.9,9298.42 782.58,2264.94 1917.58,1774.11 2535.08,-1096.32 617.51,-2870.43 483.69,-7033.47 -298.89,-9298.42 -782.59,-2264.95 -1917.58,-1774.11 -2535.09,1096.32z"/>
     <path id="61" class="fil40" d="M1736.28 -3506.49c615.35,-2860.43 1746.4,-3349.56 2526.25,-1092.5 779.86,2257.05 913.21,6405.59 297.86,9266.02 -615.36,2860.42 -1746.4,3349.55 -2526.26,1092.5 -779.85,-2257.06 -913.2,-6405.6 -297.85,-9266.02zm-14.81 -42.87c-621.81,2890.43 -487.06,7082.48 300.98,9363.22 788.03,2280.73 1930.94,1786.47 2552.75,-1103.96 621.81,-2890.43 487.05,-7082.49 -300.98,-9363.22 -788.04,-2280.73 -1930.94,-1786.47 -2552.75,1103.96z"/>
     <path id="62" class="fil41" d="M1726.41 -3535.07c619.65,-2880.43 1758.6,-3372.98 2543.91,-1100.14 785.31,2272.84 919.6,6450.39 299.94,9330.82 -619.66,2880.43 -1758.61,3372.98 -2543.92,1100.14 -785.31,-2272.84 -919.59,-6450.39 -299.93,-9330.82zm-14.82 -42.87c-626.11,2910.43 -490.42,7131.5 303.07,9428.01 793.49,2296.52 1944.3,1798.84 2570.41,-1111.6 626.11,-2910.43 490.43,-7131.49 -303.06,-9428.01 -793.49,-2296.51 -1944.3,-1798.83 -2570.42,1111.6z"/>
     <path id="63" class="fil42" d="M1716.53 -3563.65c623.96,-2900.43 1770.82,-3396.4 2561.58,-1107.78 790.77,2288.62 925.99,6495.18 302.02,9395.62 -623.96,2900.43 -1770.82,3396.4 -2561.58,1107.77 -790.76,-2288.62 -925.98,-6495.18 -302.02,-9395.61zm-14.81 -42.87c-630.42,2930.44 -493.8,7180.51 305.14,9492.81 798.95,2312.3 1957.67,1811.2 2588.09,-1119.24 630.41,-2930.43 493.79,-7180.51 -305.15,-9492.81 -798.94,-2312.3 -1957.66,-1811.19 -2588.08,1119.24z"/>
     <path id="64" class="fil42" d="M1706.66 -3592.23c628.26,-2920.43 1783.03,-3419.82 2579.25,-1115.42 796.21,2304.41 932.36,6539.98 304.1,9460.41 -628.26,2920.44 -1783.03,3419.83 -2579.25,1115.42 -796.22,-2304.4 -932.37,-6539.97 -304.1,-9460.41zm-14.82 -42.87c-634.71,2950.44 -497.16,7229.53 307.23,9557.61 804.4,2328.08 1971.03,1823.56 2605.75,-1126.88 634.72,-2950.44 497.17,-7229.52 -307.23,-9557.61 -804.39,-2328.08 -1971.03,-1823.56 -2605.75,1126.88z"/>
     <path id="65" class="fil43" d="M1696.78 -3620.81c632.57,-2940.44 1795.25,-3443.25 2596.92,-1123.06 801.67,2320.19 938.75,6584.77 306.18,9525.21 -632.56,2940.44 -1795.24,3443.25 -2596.91,1123.06 -801.67,-2320.19 -938.76,-6584.77 -306.19,-9525.21zm-14.81 -42.87c-639.02,2970.45 -500.54,7278.54 309.31,9622.41 809.85,2343.87 1984.39,1835.92 2623.42,-1134.52 639.02,-2970.44 500.53,-7278.54 -309.32,-9622.4 -809.84,-2343.87 -1984.39,-1835.93 -2623.41,1134.51z"/>
     <path id="66" class="fil44" d="M1686.91 -3649.39c636.87,-2960.44 1807.46,-3466.67 2614.58,-1130.7 807.12,2335.98 945.14,6629.57 308.27,9590.01 -636.87,2960.44 -1807.46,3466.67 -2614.58,1130.7 -807.13,-2335.97 -945.14,-6629.56 -308.27,-9590.01zm-14.81 -42.86c-643.33,2990.44 -503.91,7327.55 311.39,9687.2 815.3,2359.65 1997.75,1848.29 2641.08,-1142.16 643.33,-2990.45 503.91,-7327.55 -311.39,-9687.2 -815.31,-2359.65 -1997.76,-1848.29 -2641.08,1142.16z"/>
     <path id="67" class="fil44" d="M1677.03 -3677.96c641.18,-2980.45 1819.67,-3490.1 2632.25,-1138.34 812.58,2351.75 951.53,6674.36 310.35,9654.8 -641.17,2980.44 -1819.67,3490.1 -2632.24,1138.34 -812.58,-2351.76 -951.53,-6674.36 -310.36,-9654.8zm-14.81 -42.87c-647.63,3010.45 -507.28,7376.56 313.48,9752 820.75,2375.43 2011.12,1860.65 2658.74,-1149.8 647.63,-3010.45 507.28,-7376.57 -313.47,-9752 -820.76,-2375.43 -2011.12,-1860.65 -2658.75,1149.8z"/>
     <path id="68" class="fil45" d="M1667.16 -3706.54c645.48,-3000.45 1831.88,-3513.52 2649.91,-1145.98 818.03,2367.54 957.91,6719.15 312.44,9719.6 -645.48,3000.45 -1831.89,3513.52 -2649.92,1145.98 -818.03,-2367.54 -957.91,-6719.16 -312.43,-9719.6zm-14.81 -42.87c-651.93,3030.45 -510.65,7425.58 315.56,9816.8 826.21,2391.21 2024.48,1873.01 2676.41,-1157.44 651.93,-3030.45 510.65,-7425.58 -315.56,-9816.8 -826.21,-2391.22 -2024.48,-1873.01 -2676.41,1157.44z"/>
     <path id="69" class="fil46" d="M1657.28 -3735.12c649.78,-3020.45 1844.1,-3536.95 2667.58,-1153.62 823.49,2383.32 964.3,6763.95 314.52,9784.4 -649.78,3020.45 -1844.09,3536.94 -2667.58,1153.62 -823.48,-2383.33 -964.3,-6763.95 -314.52,-9784.4zm-14.81 -42.87c-656.23,3050.45 -514.02,7474.59 317.64,9881.59 831.67,2407 2037.85,1885.38 2694.08,-1165.07 656.24,-3050.46 514.03,-7474.6 -317.64,-9881.6 -831.66,-2407 -2037.84,-1885.37 -2694.08,1165.08z"/>
     <path id="70" class="fil47" d="M1647.41 -3763.7c654.08,-3040.45 1856.31,-3560.37 2685.25,-1161.26 828.93,2399.11 970.68,6808.74 316.6,9849.2 -654.09,3040.45 -1856.31,3560.36 -2685.25,1161.26 -828.94,-2399.11 -970.68,-6808.75 -316.6,-9849.2zm-14.81 -42.87c-660.54,3070.46 -517.39,7523.61 319.72,9946.39 837.12,2422.79 2051.21,1897.74 2711.75,-1172.72 660.54,-3070.45 517.39,-7523.6 -319.73,-9946.39 -837.11,-2422.78 -2051.2,-1897.74 -2711.74,1172.72z"/>
     <path id="71" class="fil47" d="M1637.54 -3792.28c658.38,-3060.46 1868.52,-3583.79 2702.91,-1168.9 834.39,2414.89 977.07,6853.54 318.68,9914 -658.39,3060.45 -1868.52,3583.79 -2702.91,1168.89 -834.39,-2414.89 -977.07,-6853.53 -318.68,-9913.99zm-14.82 -42.87c-664.84,3090.46 -520.76,7572.62 321.81,10011.19 842.57,2438.57 2064.57,1910.1 2729.41,-1180.36 664.84,-3090.46 520.77,-7572.62 -321.81,-10011.19 -842.57,-2438.56 -2064.57,-1910.1 -2729.41,1180.36z"/>
     <path id="72" class="fil48" d="M1627.66 -3820.86c662.69,-3080.46 1880.73,-3607.21 2720.58,-1176.54 839.84,2430.68 983.46,6898.33 320.77,9978.79 -662.69,3080.46 -1880.74,3607.22 -2720.58,1176.54 -839.85,-2430.67 -983.46,-6898.33 -320.77,-9978.79zm-14.81 -42.87c-669.15,3110.47 -524.13,7621.64 323.89,10075.99 848.02,2454.35 2077.93,1922.47 2747.08,-1188 669.14,-3110.46 524.13,-7621.63 -323.89,-10075.98 -848.03,-2454.35 -2077.94,-1922.47 -2747.08,1187.99z"/>
     <path id="73" class="fil49" d="M1617.79 -3849.44c666.99,-3100.46 1892.94,-3630.63 2738.24,-1184.18 845.3,2446.46 989.84,6943.13 322.85,10043.59 -666.99,3100.46 -1892.95,3630.64 -2738.24,1184.18 -845.3,-2446.46 -989.85,-6943.13 -322.85,-10043.59zm-14.82 -42.87c-673.44,3130.47 -527.5,7670.65 325.98,10140.79 853.48,2470.13 2091.29,1934.83 2764.74,-1195.64 673.45,-3130.47 527.51,-7670.65 -325.97,-10140.78 -853.48,-2470.14 -2091.3,-1934.83 -2764.75,1195.63z"/>
     <path id="74" class="fil49" d="M1607.91 -3878.02c671.3,-3120.46 1905.16,-3654.06 2755.91,-1191.81 850.75,2462.24 996.23,6987.92 324.93,10108.38 -671.29,3120.47 -1905.15,3654.06 -2755.91,1191.82 -850.75,-2462.24 -996.22,-6987.92 -324.93,-10108.39zm-14.81 -42.86c-677.75,3150.47 -530.87,7719.66 328.06,10205.58 858.93,2485.91 2104.66,1947.19 2782.41,-1203.28 677.75,-3150.47 530.87,-7719.66 -328.06,-10205.58 -858.93,-2485.92 -2104.66,-1947.19 -2782.41,1203.28z"/>
     <path id="75" class="fil50" d="M1598.04 -3906.59c675.6,-3140.47 1917.37,-3677.49 2773.57,-1199.46 856.21,2478.02 1002.62,7032.71 327.02,10173.18 -675.6,3140.47 -1917.37,3677.48 -2773.58,1199.46 -856.2,-2478.03 -1002.61,-7032.72 -327.01,-10173.18zm-14.81 -42.87c-682.06,3170.47 -534.25,7768.67 330.14,10270.38 864.38,2501.7 2118.02,1959.55 2800.07,-1210.92 682.05,-3170.47 534.25,-7768.68 -330.14,-10270.38 -864.38,-2501.7 -2118.02,-1959.56 -2800.07,1210.92z"/>
     <path id="76" class="fil51" d="M1588.16 -3935.17c679.9,-3160.47 1929.59,-3700.91 2791.25,-1207.1 861.65,2493.81 1009,7077.51 329.09,10237.98 -679.9,3160.47 -1929.58,3700.91 -2791.24,1207.1 -861.66,-2493.81 -1009,-7077.51 -329.1,-10237.98zm-14.81 -42.87c-686.36,3190.47 -537.62,7817.69 332.22,10335.17 869.84,2517.49 2131.39,1971.92 2817.75,-1218.55 686.35,-3190.48 537.61,-7817.69 -332.23,-10335.18 -869.84,-2517.48 -2131.38,-1971.92 -2817.74,1218.56z"/>
     <path id="77" class="fil52" d="M1578.29 -3963.75c684.2,-3180.48 1941.79,-3724.33 2808.91,-1214.74 867.11,2509.59 1015.38,7122.3 331.18,10302.78 -684.21,3180.47 -1941.8,3724.33 -2808.91,1214.74 -867.11,-2509.6 -1015.39,-7122.31 -331.18,-10302.78zm-14.81 -42.87c-690.66,3210.48 -540.99,7866.7 334.3,10399.97 875.29,2533.27 2144.75,1984.28 2835.41,-1226.19 690.66,-3210.48 540.99,-7866.71 -334.31,-10399.98 -875.29,-2533.27 -2144.74,-1984.28 -2835.4,1226.2z"/>
     <path id="78" class="fil53" d="M1568.41 -3992.33c688.51,-3200.48 1954.01,-3747.75 2826.58,-1222.38 872.56,2525.38 1021.77,7167.1 333.26,10367.58 -688.51,3200.47 -1954.01,3747.75 -2826.57,1222.37 -872.57,-2525.37 -1021.78,-7167.09 -333.27,-10367.57zm-14.81 -42.87c-694.96,3230.48 -544.36,7915.72 336.39,10464.77 880.75,2549.05 2158.11,1996.65 2853.07,-1233.84 694.97,-3230.48 544.36,-7915.71 -336.38,-10464.77 -880.75,-2549.05 -2158.11,-1996.64 -2853.08,1233.84z"/>
     <path id="79" class="fil54" d="M1558.54 -4020.91c692.81,-3220.48 1966.22,-3771.18 2844.24,-1230.02 878.02,2541.16 1028.16,7211.9 335.35,10432.38 -692.81,3220.48 -1966.22,3771.17 -2844.24,1230.01 -878.02,-2541.16 -1028.16,-7211.89 -335.35,-10432.37zm-14.81 -42.87c-699.27,3250.49 -547.73,7964.73 338.47,10529.57 886.2,2564.84 2171.47,2009.01 2870.74,-1241.48 699.27,-3250.48 547.73,-7964.73 -338.47,-10529.56 -886.2,-2564.84 -2171.48,-2009.01 -2870.74,1241.47z"/>
     <path id="80" class="fil55" d="M1548.66 -4049.49c697.12,-3240.48 1978.44,-3794.6 2861.91,-1237.66 883.47,2556.95 1034.55,7256.69 337.43,10497.17 -697.11,3240.49 -1978.43,3794.6 -2861.91,1237.66 -883.47,-2556.94 -1034.54,-7256.69 -337.43,-10497.17zm-14.81 -42.87c-703.57,3270.49 -551.1,8013.75 340.56,10594.37 891.65,2580.62 2184.83,2021.37 2888.4,-1249.12 703.57,-3270.49 551.1,-8013.74 -340.55,-10594.36 -891.65,-2580.62 -2184.84,-2021.37 -2888.41,1249.11z"/>
     <path id="81" class="fil56" d="M1538.79 -4078.07c701.42,-3260.48 1990.65,-3818.02 2879.57,-1245.29 888.93,2572.72 1040.93,7301.48 339.52,10561.96 -701.42,3260.49 -1990.65,3818.03 -2879.58,1245.3 -888.92,-2572.73 -1040.93,-7301.48 -339.51,-10561.97zm-14.81 -42.87c-707.87,3290.5 -554.47,8062.76 342.64,10659.17 897.1,2596.4 2198.19,2033.73 2906.07,-1256.76 707.87,-3290.49 554.47,-8062.76 -342.64,-10659.16 -897.11,-2596.4 -2198.2,-2033.74 -2906.07,1256.75z"/>
     <path id="82" class="fil57" d="M1528.92 -4106.65c705.72,-3280.48 2002.86,-3841.44 2897.23,-1252.93 894.38,2588.51 1047.32,7346.27 341.6,10626.76 -705.72,3280.49 -2002.86,3841.45 -2897.24,1252.94 -894.38,-2588.51 -1047.32,-7346.28 -341.59,-10626.77zm-14.82 -42.86c-712.17,3310.49 -557.84,8111.77 344.72,10723.96 902.56,2612.18 2211.57,2046.09 2923.74,-1264.4 712.18,-3310.49 557.84,-8111.77 -344.72,-10723.96 -902.56,-2612.19 -2211.56,-2046.1 -2923.74,1264.4z"/>
     <path id="83" class="fil58" d="M1519.04 -4135.22c710.03,-3300.5 2015.07,-3864.88 2914.91,-1260.58 899.83,2604.29 1053.7,7391.07 343.67,10691.56 -710.02,3300.49 -2015.07,3864.87 -2914.9,1260.58 -899.83,-2604.3 -1053.7,-7391.07 -343.68,-10691.56zm-14.81 -42.87c-716.48,3330.49 -561.21,8160.78 346.8,10788.75 908.02,2627.97 2224.93,2058.46 2941.41,-1272.03 716.48,-3330.5 561.21,-8160.79 -346.81,-10788.76 -908.01,-2627.97 -2224.92,-2058.46 -2941.4,1272.04z"/>
     <path id="84" class="fil59" d="M1509.17 -4163.8c714.32,-3320.5 2027.28,-3888.3 2932.57,-1268.22 905.28,2620.08 1060.09,7435.86 345.76,10756.36 -714.33,3320.49 -2027.29,3888.29 -2932.57,1268.22 -905.29,-2620.08 -1060.09,-7435.87 -345.76,-10756.36zm-14.82 -42.87c-720.78,3350.5 -564.58,8209.8 348.89,10853.55 913.47,2643.76 2238.29,2070.83 2959.07,-1279.67 720.78,-3350.5 564.58,-8209.8 -348.88,-10853.56 -913.47,-2643.75 -2238.29,-2070.82 -2959.08,1279.68z"/>
     <path id="85" class="fil60" d="M1499.29 -4192.38c718.63,-3340.5 2039.5,-3911.72 2950.24,-1275.86 910.74,2635.86 1066.47,7480.66 347.84,10821.16 -718.63,3340.5 -2039.49,3911.72 -2950.23,1275.85 -910.74,-2635.86 -1066.48,-7480.65 -347.85,-10821.15zm-14.81 -42.87c-725.09,3370.5 -567.95,8258.81 350.97,10918.35 918.92,2659.54 2251.65,2083.19 2976.74,-1287.31 725.08,-3370.51 567.95,-8258.82 -350.97,-10918.36 -918.92,-2659.53 -2251.65,-2083.18 -2976.74,1287.32z"/>
     <path id="86" class="fil61" d="M1489.42 -4220.96c722.93,-3360.5 2051.71,-3935.14 2967.9,-1283.5 916.19,2651.65 1072.86,7525.46 349.93,10885.96 -722.94,3360.5 -2051.71,3935.14 -2967.9,1283.49 -916.2,-2651.64 -1072.87,-7525.45 -349.93,-10885.95zm-14.81 -42.87c-729.39,3390.51 -571.33,8307.83 353.05,10983.15 924.37,2675.32 2265.01,2095.55 2994.4,-1294.96 729.39,-3390.5 571.32,-8307.82 -353.05,-10983.15 -924.38,-2675.32 -2265.02,-2095.54 -2994.4,1294.96z"/>
     <path id="87" class="fil62" d="M1479.54 -4249.54c727.24,-3380.5 2063.93,-3958.56 2985.57,-1291.14 921.65,2667.43 1079.25,7570.25 352.01,10950.76 -727.23,3380.5 -2063.92,3958.56 -2985.57,1291.13 -921.64,-2667.43 -1079.24,-7570.25 -352.01,-10950.75zm-14.81 -42.87c-733.69,3410.51 -574.69,8356.84 355.14,11047.95 929.82,2691.1 2278.37,2107.91 3012.06,-1302.6 733.7,-3410.51 574.7,-8356.84 -355.13,-11047.94 -929.83,-2691.11 -2278.38,-2107.92 -3012.07,1302.59z"/>
     <path id="88" class="fil63" d="M1469.67 -4278.12c731.54,-3400.51 2076.13,-3981.99 3003.23,-1298.77 927.1,2683.21 1085.64,7615.04 354.1,11015.54 -731.54,3400.51 -2076.14,3981.99 -3003.24,1298.78 -927.1,-2683.21 -1085.63,-7615.04 -354.09,-11015.55zm-14.81 -42.87c-738,3430.51 -578.07,8405.86 357.21,11112.75 935.29,2706.89 2291.74,2120.27 3029.74,-1310.24 737.99,-3430.51 578.06,-8405.85 -357.22,-11112.74 -935.28,-2706.89 -2291.74,-2120.28 -3029.73,1310.23z"/>
     <path id="89" class="fil64" d="M1459.79 -4306.7c735.85,-3420.51 2088.35,-4005.41 3020.91,-1306.41 932.55,2698.99 1092.02,7659.83 356.17,11080.34 -735.84,3420.51 -2088.35,4005.41 -3020.9,1306.42 -932.55,-2699 -1092.02,-7659.84 -356.18,-11080.35zm-14.81 -42.87c-742.3,3450.52 -581.43,8454.87 359.3,11177.55 940.74,2722.67 2305.11,2132.63 3047.4,-1317.88 742.3,-3450.51 581.44,-8454.87 -359.3,-11177.54 -940.73,-2722.67 -2305.1,-2132.64 -3047.4,1317.87z"/>
     <path id="90" class="fil65" d="M1449.92 -4335.28c740.15,-3440.51 2100.56,-4028.83 3038.57,-1314.05 938.01,2714.78 1098.4,7704.63 358.26,11145.14 -740.15,3440.51 -2100.56,4028.84 -3038.57,1314.06 -938.01,-2714.78 -1098.41,-7704.63 -358.26,-11145.15zm-14.81 -42.86c-746.6,3470.51 -584.81,8503.88 361.38,11242.34 946.19,2738.45 2318.47,2145 3065.07,-1325.52 746.6,-3470.52 584.8,-8503.88 -361.39,-11242.34 -946.18,-2738.45 -2318.46,-2145 -3065.06,1325.52z"/>
     <path id="91" class="fil66" d="M1440.05 -4363.85c744.45,-3460.52 2112.77,-4052.26 3056.23,-1321.7 943.46,2730.56 1104.79,7749.42 360.34,11209.94 -744.45,3460.52 -2112.77,4052.26 -3056.23,1321.7 -943.46,-2730.57 -1104.79,-7749.43 -360.34,-11209.94zm-14.82 -42.87c-750.9,3490.52 -588.17,8552.89 363.47,11307.13 951.64,2754.24 2331.83,2157.37 3082.73,-1333.15 750.91,-3490.52 588.18,-8552.9 -363.46,-11307.14 -951.65,-2754.24 -2331.83,-2157.36 -3082.74,1333.16z"/>
     <path id="92" class="fil67" d="M1430.17 -4392.43c748.75,-3480.52 2124.99,-4075.69 3073.9,-1329.34 948.92,2746.35 1111.18,7794.22 362.43,11274.74 -748.76,3480.52 -2124.99,4075.68 -3073.9,1329.33 -948.92,-2746.34 -1111.18,-7794.21 -362.43,-11274.73zm-14.81 -42.87c-755.21,3510.52 -591.55,8601.91 365.55,11371.93 957.09,2770.02 2345.19,2169.73 3100.4,-1340.79 755.21,-3510.53 591.54,-8601.91 -365.55,-11371.94 -957.1,-2770.02 -2345.19,-2169.72 -3100.4,1340.8z"/>
     <path id="93" class="fil68" d="M1420.3 -4421.01c753.05,-3500.52 2137.19,-4099.11 3091.56,-1336.98 954.37,2762.13 1117.57,7839.02 364.51,11339.54 -753.06,3500.52 -2137.2,4099.1 -3091.57,1336.97 -954.36,-2762.13 -1117.56,-7839.01 -364.5,-11339.53zm-14.82 -42.87c-759.51,3530.53 -594.91,8650.92 367.64,11436.73 962.55,2785.81 2358.55,2182.09 3118.06,-1348.43 759.51,-3530.53 594.92,-8650.93 -367.63,-11436.74 -962.55,-2785.8 -2358.55,-2182.09 -3118.07,1348.44z"/>
     <path id="94" class="fil69" d="M1410.42 -4449.59c757.36,-3520.53 2149.41,-4122.53 3109.23,-1344.62 959.83,2777.92 1123.95,7883.81 366.59,11404.34 -757.36,3520.52 -2149.41,4122.53 -3109.23,1344.61 -959.82,-2777.91 -1123.95,-7883.81 -366.59,-11404.33zm-14.81 -42.87c-763.81,3550.53 -598.29,8699.94 369.71,11501.53 968.01,2801.59 2371.92,2194.45 3135.74,-1356.08 763.81,-3550.52 598.28,-8699.93 -369.72,-11501.52 -968,-2801.59 -2371.92,-2194.46 -3135.73,1356.07z"/>
     <path id="95" class="fil70" d="M1400.55 -4478.17c761.66,-3540.53 2161.62,-4145.95 3126.9,-1352.25 965.27,2793.69 1130.33,7928.6 368.67,11469.13 -761.66,3540.52 -2161.62,4145.95 -3126.9,1352.25 -965.27,-2793.7 -1130.34,-7928.6 -368.67,-11469.13zm-14.81 -42.87c-768.12,3570.53 -601.66,8748.95 371.79,11566.33 973.46,2817.37 2385.28,2206.82 3153.4,-1363.72 768.12,-3570.53 601.66,-8748.95 -371.8,-11566.32 -973.45,-2817.38 -2385.28,-2206.82 -3153.39,1363.71z"/>
     <path id="96" class="fil71" d="M1390.67 -4506.75c765.97,-3560.53 2173.84,-4169.37 3144.57,-1359.89 970.73,2809.48 1136.72,7973.39 370.75,11533.92 -765.96,3560.53 -2173.83,4169.38 -3144.56,1359.9 -970.73,-2809.48 -1136.72,-7973.4 -370.76,-11533.93zm-14.81 -42.87c-772.42,3590.54 -605.03,8797.97 373.88,11631.13 978.91,2833.15 2398.64,2219.18 3171.07,-1371.36 772.42,-3590.53 605.02,-8797.96 -373.89,-11631.12 -978.9,-2833.16 -2398.64,-2219.18 -3171.06,1371.35z"/>
     <path id="97" class="fil72" d="M1380.8 -4535.33c770.27,-3580.53 2186.05,-4192.8 3162.23,-1367.53 976.18,2825.26 1143.11,8018.19 372.84,11598.72 -770.27,3580.54 -2186.05,4192.8 -3162.23,1367.54 -976.19,-2825.27 -1143.11,-8018.19 -372.84,-11598.73zm-14.81 -42.87c-776.73,3610.54 -608.4,8846.98 375.96,11695.93 984.36,2848.94 2412.01,2231.54 3188.73,-1379 776.72,-3610.54 608.4,-8846.98 -375.96,-11695.92 -984.37,-2848.94 -2412.01,-2231.54 -3188.73,1378.99z"/>
     <path id="98" class="fil73" d="M1370.92 -4563.91c774.58,-3600.53 2198.26,-4216.22 3179.9,-1375.17 981.64,2841.05 1149.49,8062.98 374.92,11663.52 -774.57,3600.54 -2198.26,4216.22 -3179.89,1375.18 -981.64,-2841.05 -1149.5,-8062.99 -374.93,-11663.53zm-14.81 -42.86c-781.03,3630.54 -611.77,8895.99 378.05,11760.71 989.81,2864.73 2425.37,2243.91 3206.39,-1386.63 781.03,-3630.54 611.77,-8895.99 -378.04,-11760.72 -989.82,-2864.72 -2425.37,-2243.9 -3206.4,1386.64z"/>
     <path id="99" class="fil74" d="M1361.05 -4592.48c778.87,-3620.54 2210.47,-4239.65 3197.56,-1382.82 987.09,2856.83 1155.88,8107.78 377.01,11728.32 -778.88,3620.54 -2210.48,4239.65 -3197.57,1382.81 -987.09,-2856.83 -1155.88,-8107.77 -377,-11728.31zm-14.81 -42.87c-785.33,3650.54 -615.14,8945 380.13,11825.51 995.27,2880.51 2438.73,2256.27 3224.06,-1394.27 785.33,-3650.55 615.14,-8945.01 -380.13,-11825.52 -995.27,-2880.5 -2438.73,-2256.27 -3224.06,1394.28z"/>
     <path id="100" class="fil75" d="M1351.17 -4621.06c783.18,-3640.55 2222.69,-4263.07 3215.23,-1390.46 992.55,2872.62 1162.27,8152.58 379.09,11793.12 -783.18,3640.54 -2222.68,4263.07 -3215.23,1390.45 -992.54,-2872.61 -1162.26,-8152.57 -379.09,-11793.11zm-14.81 -42.87c-789.63,3670.55 -618.51,8994.02 382.22,11890.31 1000.72,2896.29 2452.09,2268.63 3241.72,-1401.91 789.64,-3670.55 618.51,-8994.02 -382.21,-11890.32 -1000.72,-2896.29 -2452.09,-2268.63 -3241.73,1401.92z"/>
     <path id="101" class="fil76" d="M1341.3 -4649.64c787.48,-3660.55 2234.9,-4286.5 3232.89,-1398.1 998,2888.4 1168.66,8197.37 381.18,11857.92 -787.49,3660.54 -2234.9,4286.49 -3232.9,1398.09 -998,-2888.4 -1168.65,-8197.37 -381.17,-11857.91zm-14.81 -42.87c-793.94,3690.55 -621.88,9043.03 384.29,11955.11 1006.18,2912.07 2465.46,2281 3259.4,-1409.55 793.93,-3690.55 621.88,-9043.04 -384.3,-11955.11 -1006.17,-2912.08 -2465.45,-2281 -3259.39,1409.55z"/>
     <path id="102" class="fil77" d="M1331.43 -4678.22c791.78,-3680.55 2247.11,-4309.92 3250.56,-1405.73 1003.45,2904.18 1175.04,8242.16 383.25,11922.71 -791.78,3680.54 -2247.11,4309.91 -3250.56,1405.73 -1003.45,-2904.18 -1175.04,-8242.16 -383.25,-11922.71zm-14.82 -42.87c-798.24,3710.55 -625.25,9092.05 386.38,12019.91 1011.63,2927.86 2478.82,2293.36 3277.06,-1417.2 798.24,-3710.55 625.25,-9092.04 -386.38,-12019.9 -1011.63,-2927.86 -2478.82,-2293.36 -3277.06,1417.19z"/>
     <path id="103" class="fil78" d="M1321.55 -4706.8c796.09,-3700.55 2259.32,-4333.34 3268.23,-1413.37 1008.9,2919.96 1181.42,8286.95 385.33,11987.51 -796.08,3700.55 -2259.32,4333.34 -3268.22,1413.37 -1008.91,-2919.97 -1181.43,-8286.96 -385.34,-11987.51zm-14.81 -42.87c-802.54,3730.56 -628.62,9141.06 388.46,12084.71 1017.08,2943.64 2492.18,2305.72 3294.73,-1424.84 802.54,-3730.55 628.62,-9141.06 -388.46,-12084.7 -1017.09,-2943.64 -2492.19,-2305.72 -3294.73,1424.83z"/>
     <path id="104" class="fil79" d="M1311.68 -4735.38c800.39,-3720.55 2271.53,-4356.76 3285.89,-1421.01 1014.36,2935.75 1187.81,8331.75 387.42,12052.3 -800.39,3720.56 -2271.54,4356.77 -3285.89,1421.02 -1014.36,-2935.75 -1187.81,-8331.75 -387.42,-12052.31zm-14.82 -42.87c-806.84,3750.56 -631.99,9190.08 390.55,12149.51 1022.54,2959.42 2505.54,2318.08 3312.39,-1432.48 806.85,-3750.56 631.99,-9190.07 -390.54,-12149.5 -1022.54,-2959.43 -2505.55,-2318.09 -3312.4,1432.47z"/>
     <path id="105" class="fil80" d="M1301.8 -4763.96c804.7,-3740.55 2283.75,-4380.18 3303.56,-1428.65 1019.81,2951.53 1194.2,8376.55 389.5,12117.1 -804.69,3740.56 -2283.74,4380.19 -3303.56,1428.66 -1019.81,-2951.54 -1194.19,-8376.55 -389.5,-12117.11zm-14.81 -42.87c-811.15,3770.57 -635.36,9239.09 392.63,12214.3 1027.99,2975.21 2518.91,2330.45 3330.06,-1440.11 811.14,-3770.56 635.36,-9239.09 -392.63,-12214.3 -1027.99,-2975.21 -2518.91,-2330.45 -3330.06,1440.11z"/>
     <path id="106" class="fil81" d="M1291.93 -4792.54c809,-3760.56 2295.96,-4403.61 3321.22,-1436.29 1025.27,2967.32 1200.59,8421.34 391.59,12181.9 -809,3760.56 -2295.96,4403.61 -3321.23,1436.29 -1025.26,-2967.31 -1200.58,-8421.34 -391.58,-12181.9zm-14.81 -42.86c-815.46,3790.56 -638.74,9288.1 394.71,12279.09 1033.44,2991 2532.27,2342.81 3347.72,-1447.75 815.45,-3790.57 638.73,-9288.1 -394.71,-12279.1 -1033.44,-2990.99 -2532.27,-2342.81 -3347.72,1447.76z"/>
     <path id="107" class="fil82" d="M1282.05 -4821.11c813.3,-3780.57 2308.18,-4427.04 3338.89,-1443.94 1030.72,2983.1 1206.97,8466.14 393.67,12246.7 -813.3,3780.56 -2308.17,4427.03 -3338.89,1443.93 -1030.72,-2983.1 -1206.97,-8466.13 -393.67,-12246.69zm-14.81 -42.87c-819.75,3810.57 -642.1,9337.11 396.79,12343.89 1038.9,3006.78 2545.64,2355.18 3365.39,-1455.39 819.76,-3810.57 642.11,-9337.12 -396.79,-12343.9 -1038.9,-3006.77 -2545.63,-2355.17 -3365.39,1455.4z"/>
     <path id="108" class="fil83" d="M1272.18 -4849.69c817.6,-3800.57 2320.38,-4450.46 3356.56,-1451.58 1036.17,2998.89 1213.35,8510.93 395.75,12311.5 -817.61,3800.57 -2320.39,4450.46 -3356.56,1451.57 -1036.17,-2998.88 -1213.36,-8510.93 -395.75,-12311.49zm-14.81 -42.87c-824.06,3830.57 -645.48,9386.13 398.87,12408.69 1044.35,3022.56 2559,2367.54 3383.06,-1463.03 824.06,-3830.57 645.48,-9386.13 -398.88,-12408.69 -1044.35,-3022.56 -2558.99,-2367.54 -3383.05,1463.03z"/>
     <path id="109" class="fil84" d="M1262.3 -4878.27c821.91,-3820.57 2332.6,-4473.88 3374.23,-1459.22 1041.62,3014.67 1219.74,8555.73 397.83,12376.3 -821.91,3820.57 -2332.6,4473.88 -3374.22,1459.21 -1041.63,-3014.67 -1219.74,-8555.72 -397.84,-12376.29zm-14.81 -42.87c-828.36,3850.57 -648.84,9435.14 400.96,12473.49 1049.81,3038.34 2572.36,2379.9 3400.72,-1470.67 828.37,-3850.58 648.85,-9435.15 -400.95,-12473.49 -1049.81,-3038.35 -2572.37,-2379.9 -3400.73,1470.67z"/>
     <path id="110" class="fil85" d="M1252.43 -4906.85c826.21,-3840.57 2344.81,-4497.31 3391.89,-1466.85 1047.08,3030.45 1226.13,8600.51 399.92,12441.09 -826.21,3840.57 -2344.81,4497.3 -3391.89,1466.85 -1047.08,-3030.45 -1226.13,-8600.52 -399.92,-12441.09zm-14.81 -42.87c-832.67,3870.58 -652.22,9484.16 403.04,12538.29 1055.26,3054.12 2585.72,2392.26 3418.39,-1478.32 832.66,-3870.57 652.22,-9484.15 -403.04,-12538.28 -1055.26,-3054.13 -2585.73,-2392.27 -3418.39,1478.31z"/>
     <path id="111" class="fil86" d="M1242.56 -4935.43c830.51,-3860.57 2357.02,-4520.73 3409.55,-1474.49 1052.53,3046.23 1232.51,8645.31 402,12505.88 -830.51,3860.58 -2357.02,4520.73 -3409.55,1474.5 -1052.54,-3046.24 -1232.52,-8645.31 -402,-12505.89zm-14.82 -42.87c-836.96,3890.58 -655.58,9533.17 405.13,12603.09 1060.71,3069.91 2599.08,2404.62 3436.05,-1485.96 836.97,-3890.58 655.59,-9533.17 -405.12,-12603.08 -1060.71,-3069.91 -2599.09,-2404.63 -3436.06,1485.95z"/>
     <path id="112" class="fil87" d="M1232.68 -4964.01c834.82,-3880.58 2369.24,-4544.15 3427.22,-1482.13 1057.99,3062.02 1238.9,8690.11 404.09,12570.68 -834.82,3880.58 -2369.24,4544.16 -3427.23,1482.14 -1057.98,-3062.02 -1238.9,-8690.11 -404.08,-12570.69zm-14.81 -42.87c-841.27,3910.59 -658.96,9582.19 407.21,12667.88 1066.16,3085.7 2612.45,2416.99 3453.72,-1493.59 841.27,-3910.58 658.96,-9582.18 -407.21,-12667.88 -1066.17,-3085.69 -2612.45,-2416.99 -3453.72,1493.59z"/>
     <path id="113" class="fil88" d="M1222.81 -4992.59c839.12,-3900.58 2381.45,-4567.57 3444.88,-1489.77 1063.44,3077.8 1245.29,8734.9 406.17,12635.48 -839.12,3900.58 -2381.45,4567.58 -3444.89,1489.77 -1063.44,-3077.8 -1245.28,-8734.9 -406.16,-12635.48zm-14.82 -42.86c-845.57,3930.58 -662.32,9631.19 409.29,12732.67 1071.62,3101.48 2625.82,2429.36 3471.39,-1501.23 845.58,-3930.59 662.33,-9631.2 -409.29,-12732.68 -1071.62,-3101.48 -2625.81,-2429.35 -3471.39,1501.24z"/>
     <path id="114" class="fil89" d="M1212.93 -5021.17c843.42,-3920.58 2393.66,-4590.99 3462.56,-1497.41 1068.89,3093.59 1251.67,8779.7 408.24,12700.28 -843.42,3920.59 -2393.66,4591 -3462.55,1497.41 -1068.89,-3093.58 -1251.67,-8779.69 -408.25,-12700.28zm-14.81 -42.86c-849.88,3950.59 -665.7,9680.21 411.37,12797.47 1077.08,3117.26 2639.18,2441.72 3489.06,-1508.87 849.87,-3950.59 665.7,-9680.21 -411.38,-12797.48 -1077.07,-3117.26 -2639.17,-2441.71 -3489.05,1508.88z"/>
     <path id="115" class="fil90" d="M1203.06 -5049.74c847.72,-3940.59 2405.87,-4614.43 3480.22,-1505.06 1074.34,3109.37 1258.06,8824.49 410.33,12765.08 -847.73,3940.59 -2405.88,4614.42 -3480.22,1505.05 -1074.35,-3109.37 -1258.06,-8824.49 -410.33,-12765.07zm-14.81 -42.87c-854.19,3970.59 -669.08,9729.22 413.45,12862.27 1082.53,3133.05 2652.54,2454.08 3506.72,-1516.51 854.18,-3970.59 669.07,-9729.23 -413.46,-12862.27 -1082.52,-3133.05 -2652.53,-2454.08 -3506.71,1516.51z"/>
     <path id="116" class="fil91" d="M1193.18 -5078.32c852.03,-3960.59 2418.09,-4637.85 3497.89,-1512.7 1079.8,3125.16 1264.44,8869.29 412.41,12829.88 -852.03,3960.59 -2418.08,4637.84 -3497.88,1512.69 -1079.8,-3125.15 -1264.45,-8869.28 -412.42,-12829.87zm-14.81 -42.87c-858.48,3990.59 -672.44,9778.24 415.54,12927.07 1087.98,3148.83 2665.9,2466.44 3524.39,-1524.15 858.48,-3990.6 672.44,-9778.24 -415.54,-12927.07 -1087.98,-3148.83 -2665.9,-2466.45 -3524.39,1524.15z"/>
     <path id="117" class="fil92" d="M1183.31 -5106.9c856.33,-3980.6 2430.3,-4661.27 3515.55,-1520.33 1085.25,3140.93 1270.83,8914.07 414.5,12894.67 -856.33,3980.59 -2430.3,4661.27 -3515.55,1520.33 -1085.26,-3140.94 -1270.83,-8914.08 -414.5,-12894.67zm-14.81 -42.87c-862.79,4010.6 -675.82,9827.25 417.62,12991.87 1093.43,3164.61 2679.26,2478.8 3542.05,-1531.79 862.79,-4010.6 675.81,-9827.26 -417.62,-12991.87 -1093.44,-3164.61 -2679.27,-2478.81 -3542.05,1531.79z"/>
     <path id="118" class="fil93" d="M1173.43 -5135.48c860.64,-4000.6 2442.52,-4684.69 3533.22,-1527.97 1090.71,3156.72 1277.22,8958.87 416.58,12959.47 -860.63,4000.59 -2442.51,4684.69 -3533.22,1527.97 -1090.7,-3156.72 -1277.21,-8958.87 -416.58,-12959.47zm-14.81 -42.87c-867.09,4030.6 -679.18,9876.27 419.71,13056.67 1098.88,3180.39 2692.62,2491.16 3559.71,-1539.44 867.09,-4030.6 679.19,-9876.26 -419.7,-13056.66 -1098.89,-3180.4 -2692.63,-2491.17 -3559.72,1539.43z"/>
     <path id="119" class="fil94" d="M1163.56 -5164.06c864.94,-4020.6 2454.72,-4708.12 3550.88,-1535.61 1096.16,3172.5 1283.61,9003.67 418.67,13024.26 -864.94,4020.6 -2454.73,4708.12 -3550.89,1535.62 -1096.16,-3172.51 -1283.6,-9003.67 -418.66,-13024.27zm-14.81 -42.87c-871.4,4050.61 -682.56,9925.28 421.78,13121.46 1104.35,3196.18 2705.99,2503.54 3577.39,-1547.07 871.39,-4050.6 682.55,-9925.28 -421.79,-13121.46 -1104.34,-3196.18 -2705.99,-2503.53 -3577.38,1547.07z"/>
     <path id="120" class="fil95" d="M1153.68 -5192.64c869.25,-4040.6 2466.94,-4731.54 3568.56,-1543.25 1101.61,3188.29 1289.98,9048.46 420.74,13089.06 -869.24,4040.61 -2466.94,4731.54 -3568.55,1543.26 -1101.61,-3188.29 -1289.99,-9048.47 -420.75,-13089.07zm-14.81 -42.87c-875.69,4070.61 -685.92,9974.3 423.87,13186.26 1109.8,3211.97 2719.36,2515.9 3595.05,-1554.71 875.7,-4070.6 685.93,-9974.29 -423.87,-13186.26 -1109.79,-3211.96 -2719.35,-2515.89 -3595.05,1554.71z"/>
     <path id="121" class="fil96" d="M1143.81 -5221.22c873.55,-4060.6 2479.15,-4754.96 3586.22,-1550.89 1107.06,3204.07 1296.37,9093.26 422.83,13153.86 -873.55,4060.61 -2479.15,4754.97 -3586.22,1550.89 -1107.07,-3204.07 -1296.38,-9093.25 -422.83,-13153.86zm-14.81 -42.86c-880,4090.6 -689.3,10023.3 425.95,13251.05 1115.25,3227.75 2732.72,2528.26 3612.72,-1562.35 880,-4090.61 689.29,-10023.31 -425.96,-13251.06 -1115.24,-3227.74 -2732.71,-2528.25 -3612.71,1562.36z"/>
     <path id="122" class="fil97" d="M1133.94 -5249.8c877.84,-4080.6 2491.36,-4778.38 3603.88,-1558.53 1112.52,3219.86 1302.76,9138.05 424.91,13218.66 -877.85,4080.61 -2491.36,4778.39 -3603.88,1558.53 -1112.52,-3219.85 -1302.76,-9138.05 -424.91,-13218.66zm-14.82 -42.86c-884.3,4110.61 -692.66,10072.32 428.04,13315.85 1120.7,3243.53 2746.08,2540.62 3630.38,-1569.99 884.31,-4110.61 692.67,-10072.32 -428.03,-13315.85 -1120.71,-3243.54 -2746.08,-2540.63 -3630.39,1569.99z"/>
     <path id="123" class="fil98" d="M1124.06 -5278.37c882.15,-4100.62 2503.58,-4801.81 3621.55,-1566.18 1117.97,3235.64 1309.15,9182.85 426.99,13283.46 -882.15,4100.61 -2503.57,4801.81 -3621.54,1566.17 -1117.98,-3235.64 -1309.15,-9182.84 -427,-13283.45zm-14.81 -42.87c-888.61,4130.61 -696.04,10121.33 430.12,13380.65 1126.15,3259.31 2759.44,2552.98 3648.05,-1577.63 888.6,-4130.62 696.03,-10121.34 -430.12,-13380.65 -1126.16,-3259.32 -2759.44,-2552.99 -3648.05,1577.63z"/>
     <path id="124" class="fil99" d="M1114.19 -5306.95c886.45,-4120.62 2515.78,-4825.24 3639.21,-1573.81 1123.43,3251.42 1315.53,9227.63 429.08,13348.25 -886.46,4120.61 -2515.79,4825.23 -3639.22,1573.81 -1123.42,-3251.42 -1315.53,-9227.64 -429.07,-13348.25zm-14.81 -42.87c-892.91,4150.62 -699.41,10170.35 432.2,13445.45 1131.61,3275.1 2772.8,2565.35 3665.71,-1585.27 892.91,-4150.62 699.41,-10170.35 -432.2,-13445.45 -1131.61,-3275.1 -2772.81,-2565.35 -3665.71,1585.27z"/>
     <path id="125" class="fil100" d="M1104.31 -5335.53c890.76,-4140.62 2528,-4848.66 3656.88,-1581.45 1128.88,3267.2 1321.92,9272.43 431.16,13413.05 -890.75,4140.61 -2528,4848.65 -3656.88,1581.45 -1128.88,-3267.21 -1321.92,-9272.43 -431.16,-13413.05zm-14.81 -42.87c-897.21,4170.62 -702.78,10219.36 434.29,13510.25 1137.06,3290.88 2786.16,2577.71 3683.38,-1592.91 897.21,-4170.63 702.77,-10219.37 -434.29,-13510.25 -1137.06,-3290.88 -2786.17,-2577.71 -3683.38,1592.91z"/>
     <path id="126" class="fil101" d="M1094.44 -5364.11c895.06,-4160.62 2540.21,-4872.08 3674.54,-1589.09 1134.34,3282.99 1328.31,9317.23 433.25,13477.85 -895.06,4160.62 -2540.21,4872.08 -3674.55,1589.09 -1134.33,-3282.99 -1328.3,-9317.23 -433.24,-13477.85zm-14.81 -42.87c-901.52,4190.63 -706.15,10268.38 436.36,13575.04 1142.52,3306.67 2799.53,2590.08 3701.05,-1600.55 901.52,-4190.62 706.15,-10268.37 -436.37,-13575.04 -1142.51,-3306.66 -2799.53,-2590.07 -3701.04,1600.55z"/>
     <path id="127" class="fil102" d="M1084.56 -5392.69c899.37,-4180.62 2552.43,-4895.5 3692.22,-1596.73 1139.78,3298.77 1334.69,9362.02 435.32,13542.64 -899.36,4180.63 -2552.42,4895.51 -3692.21,1596.74 -1139.79,-3298.78 -1334.69,-9362.03 -435.33,-13542.65zm-14.81 -42.87c-905.82,4210.63 -709.52,10317.39 438.45,13639.84 1147.97,3322.45 2812.9,2602.44 3718.71,-1608.19 905.82,-4210.62 709.52,-10317.39 -438.45,-13639.84 -1147.97,-3322.45 -2812.89,-2602.43 -3718.71,1608.19z"/>
     <path id="128" class="fil103" d="M1074.69 -5421.27c903.67,-4200.62 2564.64,-4918.93 3709.88,-1604.37 1145.24,3314.56 1341.07,9406.82 437.41,13607.44 -903.67,4200.63 -2564.64,4918.93 -3709.88,1604.37 -1145.24,-3314.55 -1341.08,-9406.81 -437.41,-13607.44zm-14.81 -42.87c-910.13,4230.63 -712.89,10366.41 440.53,13704.64 1153.42,3338.23 2826.26,2614.8 3736.38,-1615.83 910.12,-4230.63 712.89,-10366.4 -440.53,-13704.64 -1153.43,-3338.23 -2826.26,-2614.8 -3736.38,1615.83z"/>
     <path id="129" class="fil104" d="M1064.81 -5449.85c907.98,-4220.63 2576.85,-4942.35 3727.55,-1612.01 1150.7,3330.34 1347.46,9451.61 439.49,13672.24 -907.97,4220.63 -2576.85,4942.35 -3727.54,1612.01 -1150.7,-3330.34 -1347.47,-9451.61 -439.5,-13672.24zm-14.81 -42.86c-914.42,4250.63 -716.26,10415.41 442.62,13769.43 1158.87,3354.02 2839.62,2627.16 3754.04,-1623.47 914.43,-4250.63 716.26,-10415.42 -442.61,-13769.43 -1158.88,-3354.02 -2839.62,-2627.17 -3754.05,1623.47z"/>
     <path id="130" class="fil105" d="M1054.94 -5478.43c912.27,-4240.63 2589.06,-4965.77 3745.21,-1619.65 1156.15,3346.13 1353.85,9496.41 441.58,13737.04 -912.28,4240.63 -2589.07,4965.78 -3745.22,1619.65 -1156.14,-3346.12 -1353.84,-9496.4 -441.57,-13737.04zm-14.81 -42.86c-918.73,4270.63 -719.63,10464.43 444.7,13834.23 1164.33,3369.8 2852.98,2639.53 3771.71,-1631.11 918.73,-4270.64 719.63,-10464.43 -444.7,-13834.23 -1164.33,-3369.8 -2852.98,-2639.53 -3771.71,1631.11z"/>
     <path id="131" class="fil106" d="M1045.07 -5507c916.57,-4260.64 2601.27,-4989.2 3762.87,-1627.29 1161.61,3361.9 1360.24,9541.19 443.66,13801.83 -916.58,4260.63 -2601.27,4989.2 -3762.88,1627.29 -1161.6,-3361.91 -1360.23,-9541.2 -443.65,-13801.83zm-14.82 -42.87c-923.03,4290.64 -723,10513.44 446.79,13899.03 1169.78,3385.58 2866.34,2651.89 3789.37,-1638.75 923.03,-4290.64 723,-10513.45 -446.78,-13899.03 -1169.78,-3385.59 -2866.34,-2651.89 -3789.38,1638.75z"/>
     <path id="132" class="fil107" d="M1035.19 -5535.58c920.88,-4280.64 2613.49,-5012.62 3780.54,-1634.93 1167.06,3377.69 1366.63,9585.99 445.75,13866.63 -920.89,4280.64 -2613.49,5012.62 -3780.55,1634.93 -1167.05,-3377.69 -1366.62,-9586 -445.74,-13866.63zm-14.81 -42.87c-927.34,4310.64 -726.37,10562.46 448.86,13963.83 1175.24,3401.36 2879.71,2664.25 3807.05,-1646.39 927.33,-4310.65 726.37,-10562.46 -448.87,-13963.83 -1175.23,-3401.37 -2879.71,-2664.25 -3807.04,1646.39z"/>
     <path id="133" class="fil108" d="M1025.32 -5564.16c925.18,-4300.64 2625.7,-5036.05 3798.21,-1642.57 1172.51,3393.47 1373,9630.79 447.82,13931.43 -925.18,4300.64 -2625.7,5036.04 -3798.21,1642.57 -1172.51,-3393.48 -1373.01,-9630.79 -447.82,-13931.43zm-14.82 -42.87c-931.63,4330.65 -729.74,10611.47 450.95,14028.62 1180.69,3417.16 2893.07,2676.62 3824.71,-1654.02 931.64,-4330.65 729.74,-10611.48 -450.95,-14028.63 -1180.69,-3417.15 -2893.07,-2676.62 -3824.71,1654.03z"/>
     <path id="134" class="fil109" d="M1015.44 -5592.74c929.49,-4320.64 2637.91,-5059.47 3815.88,-1650.21 1177.96,3409.26 1379.39,9675.58 449.9,13996.23 -929.48,4320.64 -2637.91,5059.46 -3815.87,1650.21 -1177.96,-3409.26 -1379.39,-9675.59 -449.91,-13996.23zm-14.81 -42.87c-935.94,4350.65 -733.11,10660.49 453.03,14093.42 1186.14,3432.94 2906.43,2688.98 3842.38,-1661.67 935.94,-4350.64 733.11,-10660.48 -453.03,-14093.42 -1186.15,-3432.93 -2906.44,-2688.98 -3842.38,1661.67z"/>
     <path id="135" class="fil110" d="M1005.57 -5621.32c933.79,-4340.65 2650.12,-5082.89 3833.54,-1657.85 1183.42,3425.04 1385.78,9720.38 451.99,14061.02 -933.79,4340.65 -2650.13,5082.9 -3833.54,1657.85 -1183.42,-3425.04 -1385.78,-9720.37 -451.99,-14061.02zm-14.81 -42.87c-940.25,4370.65 -736.49,10709.5 455.11,14158.22 1191.6,3448.72 2919.8,2701.34 3860.04,-1669.31 940.25,-4370.65 736.48,-10709.5 -455.11,-14158.22 -1191.6,-3448.71 -2919.8,-2701.34 -3860.04,1669.31z"/>
     <path id="136" class="fil111" d="M995.69 -5649.9c938.1,-4360.65 2662.34,-5106.31 3851.21,-1665.49 1188.87,3440.83 1392.17,9765.17 454.07,14125.82 -938.09,4360.65 -2662.33,5106.32 -3851.2,1665.49 -1188.88,-3440.82 -1392.17,-9765.17 -454.08,-14125.82zm-14.81 -42.87c-944.55,4390.66 -739.85,10758.52 457.2,14223.02 1197.05,3464.5 2933.16,2713.71 3877.7,-1676.95 944.55,-4390.65 739.86,-10758.51 -457.19,-14223.02 -1197.05,-3464.5 -2933.16,-2713.7 -3877.71,1676.95z"/>
     <path id="137" class="fil112" d="M985.82 -5678.48c942.39,-4380.65 2674.55,-5129.73 3868.87,-1673.13 1194.33,3456.61 1398.55,9809.97 456.16,14190.62 -942.4,4380.66 -2674.55,5129.74 -3868.88,1673.13 -1194.32,-3456.61 -1398.55,-9809.96 -456.15,-14190.62zm-14.81 -42.86c-948.85,4410.65 -743.23,10807.52 459.28,14287.81 1202.5,3480.28 2946.52,2726.07 3895.37,-1684.59 948.85,-4410.66 743.22,-10807.53 -459.28,-14287.81 -1202.5,-3480.29 -2946.52,-2726.07 -3895.37,1684.59z"/>
     <path id="138" class="fil113" d="M975.94 -5707.06c946.7,-4400.65 2686.77,-5153.16 3886.54,-1680.76 1199.78,3472.39 1404.94,9854.76 458.24,14255.41 -946.7,4400.66 -2686.76,5153.16 -3886.54,1680.77 -1199.78,-3472.39 -1404.94,-9854.76 -458.24,-14255.42zm-14.81 -42.86c-953.15,4430.66 -746.59,10856.54 461.36,14352.61 1207.96,3496.07 2959.89,2738.43 3913.04,-1692.23 953.16,-4430.66 746.6,-10856.54 -461.36,-14352.61 -1207.96,-3496.07 -2959.88,-2738.43 -3913.04,1692.23z"/>
     <path id="139" class="fil114" d="M966.07 -5735.63c951,-4420.66 2698.97,-5176.59 3904.21,-1688.41 1205.23,3488.17 1411.32,9899.55 460.32,14320.21 -951.01,4420.66 -2698.98,5176.58 -3904.21,1688.41 -1205.23,-3488.18 -1411.32,-9899.56 -460.32,-14320.21zm-14.81 -42.87c-957.46,4450.66 -749.97,10905.55 463.44,14417.41 1213.41,3511.85 2973.25,2750.79 3930.71,-1699.87 957.46,-4450.67 749.96,-10905.56 -463.45,-14417.41 -1213.41,-3511.85 -2973.25,-2750.8 -3930.7,1699.87z"/>
     <path id="140" class="fil115" d="M956.19 -5764.21c955.31,-4440.66 2711.19,-5200.01 3921.88,-1696.05 1210.68,3503.96 1417.71,9944.35 462.4,14385.01 -955.3,4440.66 -2711.19,5200.01 -3921.87,1696.05 -1210.69,-3503.96 -1417.71,-9944.35 -462.41,-14385.01zm-14.81 -42.87c-961.76,4470.67 -753.33,10954.57 465.53,14482.21 1218.87,3527.63 2986.61,2763.15 3948.37,-1707.51 961.76,-4470.67 753.34,-10954.57 -465.53,-14482.21 -1218.86,-3527.63 -2986.61,-2763.16 -3948.37,1707.51z"/>
     <path id="141" class="fil116" d="M946.32 -5792.79c959.61,-4460.67 2723.4,-5223.43 3939.54,-1703.69 1216.14,3519.74 1424.09,9989.14 464.49,14449.81 -959.61,4460.66 -2723.4,5223.43 -3939.54,1703.69 -1216.14,-3519.75 -1424.1,-9989.15 -464.49,-14449.81zm-14.81 -42.87c-966.07,4490.67 -756.71,11003.58 467.61,14547 1224.32,3543.42 2999.97,2775.52 3966.04,-1715.14 966.06,-4490.67 756.7,-11003.59 -467.61,-14547.01 -1224.32,-3543.42 -2999.98,-2775.52 -3966.04,1715.15z"/>
     <path id="142" class="fil117" d="M936.45 -5821.37c963.91,-4480.67 2735.61,-5246.86 3957.2,-1711.33 1221.59,3535.53 1430.48,10033.94 466.57,14514.61 -963.91,4480.66 -2735.61,5246.85 -3957.2,1711.32 -1221.6,-3535.52 -1430.49,-10033.93 -466.57,-14514.6zm-14.82 -42.87c-970.36,4510.67 -760.07,11052.6 469.7,14611.8 1229.77,3559.2 3013.34,2787.89 3983.7,-1722.79 970.37,-4510.67 760.08,-11052.59 -469.69,-14611.8 -1229.77,-3559.2 -3013.34,-2787.88 -3983.71,1722.79z"/>
     <path id="143" class="fil118" d="M926.57 -5849.95c968.22,-4500.67 2747.83,-5270.28 3974.87,-1718.97 1227.05,3551.31 1436.87,10078.73 468.65,14579.4 -968.21,4500.68 -2747.82,5270.28 -3974.87,1718.97 -1227.04,-3551.31 -1436.86,-10078.73 -468.65,-14579.4zm-14.81 -42.87c-974.67,4530.68 -763.45,11101.61 471.78,14676.6 1235.22,3574.99 3026.7,2800.25 4001.37,-1730.43 974.67,-4530.67 763.44,-11101.61 -471.78,-14676.6 -1235.23,-3574.98 -3026.7,-2800.24 -4001.37,1730.43z"/>
     <path id="144" class="fil119" d="M916.7 -5878.53c972.52,-4520.67 2760.03,-5293.7 3992.53,-1726.61 1232.5,3567.1 1443.26,10123.53 470.74,14644.2 -972.52,4520.68 -2760.04,5293.71 -3992.54,1726.61 -1232.5,-3567.09 -1443.25,-10123.52 -470.73,-14644.2zm-14.81 -42.87c-978.98,4550.68 -766.82,11150.63 473.86,14741.4 1240.67,3590.77 3040.06,2812.61 4019.03,-1738.07 978.97,-4550.68 766.82,-11150.62 -473.86,-14741.39 -1240.68,-3590.77 -3040.06,-2812.61 -4019.03,1738.06z"/>
     <path id="145" class="fil120" d="M906.82 -5907.11c976.82,-4540.67 2772.25,-5317.12 4010.21,-1734.24 1237.95,3582.87 1449.64,10168.32 472.81,14708.99 -976.82,4540.68 -2772.25,5317.13 -4010.2,1734.25 -1237.95,-3582.88 -1449.64,-10168.32 -472.82,-14709zm-14.81 -42.86c-983.28,4570.68 -770.19,11199.63 475.94,14806.19 1246.14,3606.55 3053.43,2824.97 4036.71,-1745.71 983.27,-4570.68 770.19,-11199.64 -475.95,-14806.19 -1246.13,-3606.56 -3053.42,-2824.98 -4036.7,1745.71z"/>
     <path id="146" class="fil121" d="M896.95 -5935.69c981.12,-4560.67 2784.46,-5340.54 4027.87,-1741.88 1243.4,3598.66 1456.02,10213.11 474.9,14773.79 -981.13,4560.68 -2784.47,5340.55 -4027.87,1741.89 -1243.41,-3598.66 -1456.03,-10213.12 -474.9,-14773.8zm-14.81 -42.86c-987.58,4590.68 -773.56,11248.65 478.02,14870.99 1251.59,3622.33 3066.79,2837.33 4054.37,-1753.35 987.58,-4590.69 773.56,-11248.65 -478.03,-14870.99 -1251.58,-3622.34 -3066.78,-2837.34 -4054.36,1753.35z"/>
     <path id="147" class="fil122" d="M887.07 -5964.26c985.43,-4580.69 2796.68,-5363.98 4045.54,-1749.53 1248.86,3614.44 1462.41,10257.91 476.98,14838.59 -985.43,4580.68 -2796.67,5363.97 -4045.53,1749.53 -1248.86,-3614.45 -1462.41,-10257.91 -476.99,-14838.59zm-14.81 -42.87c-991.88,4610.68 -776.93,11297.66 480.11,14935.79 1257.04,3638.12 3080.15,2849.69 4072.03,-1760.99 991.89,-4610.69 776.94,-11297.67 -480.1,-14935.79 -1257.04,-3638.12 -3080.16,-2849.7 -4072.04,1760.99z"/>
     <path id="148" class="fil123" d="M877.2 -5992.84c989.73,-4600.69 2808.89,-5387.4 4063.2,-1757.17 1254.31,3630.23 1468.8,10302.7 479.07,14903.39 -989.73,4600.68 -2808.89,5387.39 -4063.2,1757.17 -1254.32,-3630.23 -1468.8,-10302.71 -479.07,-14903.39zm-14.81 -42.87c-996.19,4630.69 -780.3,11346.68 482.19,15000.58 1262.49,3653.91 3093.51,2862.07 4089.7,-1768.62 996.18,-4630.69 780.3,-11346.68 -482.19,-15000.59 -1262.5,-3653.9 -3093.52,-2862.06 -4089.7,1768.63z"/>
     <path id="149" class="fil124" d="M867.32 -6021.42c994.04,-4620.69 2821.11,-5410.82 4080.87,-1764.81 1259.77,3646.01 1475.19,10347.5 481.15,14968.19 -994.03,4620.69 -2821.1,5410.82 -4080.87,1764.8 -1259.76,-3646.01 -1475.18,-10347.49 -481.15,-14968.18zm-14.81 -42.87c-1000.49,4650.69 -783.67,11395.69 484.28,15065.38 1267.94,3669.69 3106.87,2874.43 4107.36,-1776.26 1000.49,-4650.7 783.68,-11395.7 -484.27,-15065.39 -1267.95,-3669.68 -3106.88,-2874.42 -4107.37,1776.27z"/>
     <path id="150" class="fil125" d="M857.45 -6050c998.34,-4640.69 2833.31,-5434.24 4098.53,-1772.45 1265.22,3661.8 1481.57,10392.29 483.24,15032.99 -998.34,4640.69 -2833.32,5434.24 -4098.54,1772.44 -1265.22,-3661.79 -1481.57,-10392.29 -483.23,-15032.98zm-14.81 -42.87c-1004.79,4670.7 -787.04,11444.71 486.36,15130.18 1273.4,3685.47 3120.24,2886.79 4125.03,-1783.91 1004.79,-4670.69 787.04,-11444.7 -486.36,-15130.18 -1273.4,-3685.47 -3120.24,-2886.78 -4125.03,1783.91z"/>
     <path id="151" class="fil126" d="M847.58 -6078.58c1002.64,-4660.69 2845.52,-5457.67 4116.19,-1780.09 1270.68,3677.58 1487.96,10437.09 485.32,15097.78 -1002.64,4660.7 -2845.53,5457.67 -4116.2,1780.09 -1270.67,-3677.58 -1487.96,-10437.08 -485.31,-15097.78zm-14.82 -42.87c-1009.09,4690.7 -790.41,11493.72 488.44,15194.98 1278.86,3701.25 3133.61,2899.15 4142.7,-1791.55 1009.1,-4690.7 790.42,-11493.72 -488.44,-15194.97 -1278.85,-3701.26 -3133.6,-2899.16 -4142.7,1791.54z"/>
     <path id="152" class="fil127" d="M837.7 -6107.16c1006.94,-4680.7 2857.74,-5481.09 4133.87,-1787.72 1276.12,3693.36 1494.34,10481.88 487.4,15162.57 -1006.95,4680.7 -2857.74,5481.09 -4133.87,1787.73 -1276.13,-3693.36 -1494.34,-10481.88 -487.4,-15162.58zm-14.81 -42.87c-1013.4,4710.71 -793.78,11542.74 490.52,15259.78 1284.31,3717.04 3146.97,2911.51 4160.37,-1799.19 1013.4,-4710.7 793.78,-11542.73 -490.53,-15259.77 -1284.3,-3717.04 -3146.96,-2911.52 -4160.36,1799.18z"/>
     <path id="153" class="fil128" d="M827.83 -6135.74c1011.24,-4700.7 2869.95,-5504.51 4151.53,-1795.36 1281.58,3709.14 1500.73,10526.67 489.48,15227.37 -1011.25,4700.7 -2869.95,5504.52 -4151.53,1795.37 -1281.58,-3709.15 -1500.73,-10526.68 -489.48,-15227.38zm-14.82 -42.86c-1017.7,4730.7 -797.15,11591.74 492.61,15324.57 1289.76,3732.82 3160.33,2923.88 4178.03,-1806.83 1017.7,-4730.7 797.16,-11591.75 -492.6,-15324.57 -1289.77,-3732.82 -3160.33,-2923.88 -4178.04,1806.83z"/>
     <path id="154" class="fil129" d="M817.95 -6164.32c1015.55,-4720.7 2882.17,-5527.93 4169.2,-1803 1287.03,3724.93 1507.11,10571.47 491.56,15292.17 -1015.55,4720.7 -2882.16,5527.94 -4169.19,1803.01 -1287.04,-3724.93 -1507.12,-10571.47 -491.57,-15292.18zm-14.81 -42.86c-1022,4750.7 -800.53,11640.76 494.69,15389.37 1295.21,3748.6 3173.69,2936.24 4195.7,-1814.47 1022,-4750.71 800.52,-11640.76 -494.69,-15389.37 -1295.22,-3748.61 -3173.69,-2936.24 -4195.7,1814.47z"/>
     <path id="155" class="fil130" d="M808.08 -6192.89c1019.85,-4740.71 2894.37,-5551.36 4186.86,-1810.65 1292.49,3740.71 1513.5,10616.26 493.65,15356.97 -1019.85,4740.71 -2894.38,5551.36 -4186.87,1810.65 -1292.48,-3740.72 -1513.5,-10616.27 -493.64,-15356.97zm-14.81 -42.87c-1026.31,4770.71 -803.9,11689.77 496.77,15454.16 1300.67,3764.39 3187.05,2948.61 4213.36,-1822.1 1026.31,-4770.71 803.9,-11689.78 -496.77,-15454.17 -1300.67,-3764.39 -3187.06,-2948.6 -4213.36,1822.11z"/>
     <path id="156" class="fil131" d="M798.2 -6221.47c1024.16,-4760.71 2906.59,-5574.79 4204.53,-1818.29 1297.94,3756.5 1519.89,10661.06 495.73,15421.77 -1024.15,4760.71 -2906.59,5574.78 -4204.53,1818.28 -1297.94,-3756.49 -1519.88,-10661.05 -495.73,-15421.76zm-14.81 -42.87c-1030.61,4790.71 -807.27,11738.79 498.86,15518.96 1306.12,3780.18 3200.41,2960.97 4231.02,-1829.74 1030.62,-4790.72 807.27,-11738.79 -498.85,-15518.97 -1306.12,-3780.17 -3200.42,-2960.96 -4231.03,1829.75z"/>
     <path id="157" class="fil132" d="M788.33 -6250.05c1028.46,-4780.71 2918.8,-5598.21 4222.19,-1825.93 1303.4,3772.28 1526.28,10705.85 497.82,15486.57 -1028.46,4780.71 -2918.8,5598.2 -4222.2,1825.92 -1303.39,-3772.28 -1526.27,-10705.85 -497.81,-15486.56zm-14.81 -42.87c-1034.92,4810.72 -810.64,11787.8 500.93,15583.76 1311.58,3795.96 3213.78,2973.33 4248.7,-1837.38 1034.91,-4810.72 810.64,-11787.81 -500.94,-15583.77 -1311.57,-3795.95 -3213.78,-2973.33 -4248.69,1837.39z"/>
     <path id="158" class="fil133" d="M778.45 -6278.63c1032.77,-4800.72 2931.02,-5621.63 4239.87,-1833.57 1308.84,3788.07 1532.66,10750.65 499.89,15551.37 -1032.76,4800.71 -2931.01,5621.63 -4239.86,1833.56 -1308.85,-3788.06 -1532.66,-10750.64 -499.9,-15551.36zm-14.81 -42.87c-1039.22,4830.72 -814.01,11836.82 503.02,15648.56 1317.03,3811.74 3227.15,2985.69 4266.36,-1845.03 1039.22,-4830.72 814.01,-11836.81 -503.02,-15648.55 -1317.03,-3811.74 -3227.14,-2985.7 -4266.36,1845.02z"/>
     <path id="159" class="fil134" d="M768.58 -6307.21c1037.07,-4820.72 2943.23,-5645.05 4257.53,-1841.21 1314.3,3803.85 1539.04,10795.45 501.98,15616.16 -1037.07,4820.72 -2943.23,5645.06 -4257.53,1841.21 -1314.3,-3803.85 -1539.05,-10795.44 -501.98,-15616.16zm-14.81 -42.87c-1043.52,4850.73 -817.38,11885.83 505.1,15713.36 1322.48,3827.52 3240.51,2998.06 4284.03,-1852.67 1043.52,-4850.72 817.38,-11885.83 -505.11,-15713.35 -1322.48,-3827.53 -3240.5,-2998.06 -4284.02,1852.66z"/>
     <path id="160" class="fil135" d="M758.7 -6335.79c1041.37,-4840.72 2955.44,-5668.48 4275.2,-1848.84 1319.75,3819.63 1545.43,10840.23 504.06,15680.95 -1041.37,4840.72 -2955.44,5668.48 -4275.19,1848.85 -1319.76,-3819.63 -1545.43,-10840.24 -504.07,-15680.96zm-14.81 -42.87c-1047.82,4870.73 -820.75,11934.85 507.19,15778.16 1327.94,3843.3 3253.87,3010.42 4301.69,-1860.31 1047.83,-4870.72 820.75,-11934.84 -507.18,-15778.15 -1327.94,-3843.31 -3253.87,-3010.42 -4301.7,1860.3z"/>
     <path id="161" class="fil136" d="M748.83 -6364.37c1045.67,-4860.72 2967.65,-5691.9 4292.86,-1856.48 1325.21,3835.41 1551.82,10885.03 506.15,15745.75 -1045.68,4860.73 -2967.66,5691.9 -4292.86,1856.49 -1325.21,-3835.42 -1551.82,-10885.03 -506.15,-15745.76zm-14.81 -42.86c-1052.13,4890.72 -824.12,11983.85 509.27,15842.95 1333.39,3859.09 3267.23,3022.78 4319.36,-1867.95 1052.12,-4890.73 824.12,-11983.86 -509.27,-15842.95 -1333.39,-3859.09 -3267.23,-3022.78 -4319.36,1867.95z"/>
     <path id="162" class="fil137" d="M738.96 -6392.95c1049.97,-4880.72 2979.86,-5715.32 4310.52,-1864.12 1330.66,3851.2 1558.21,10929.82 508.23,15810.55 -1049.98,4880.73 -2979.86,5715.33 -4310.53,1864.13 -1330.66,-3851.2 -1558.2,-10929.83 -508.22,-15810.56zm-14.82 -42.86c-1056.43,4910.73 -827.49,12032.87 511.36,15907.74 1338.84,3874.88 3280.59,3035.15 4337.02,-1875.58 1056.43,-4910.73 827.49,-12032.87 -511.35,-15907.75 -1338.84,-3874.87 -3280.6,-3035.15 -4337.03,1875.59z"/>
     <path id="163" class="fil138" d="M729.08 -6421.52c1054.28,-4900.73 2992.08,-5738.75 4328.19,-1871.77 1336.12,3866.98 1564.59,10974.62 510.31,15875.35 -1054.27,4900.73 -2992.07,5738.75 -4328.19,1871.77 -1336.11,-3866.99 -1564.59,-10974.62 -510.31,-15875.35zm-14.81 -42.87c-1060.73,4930.73 -830.86,12081.88 513.43,15972.54 1344.3,3890.66 3293.96,3047.51 4354.7,-1883.22 1060.73,-4930.74 830.86,-12081.89 -513.44,-15972.55 -1344.29,-3890.66 -3293.96,-3047.51 -4354.69,1883.23z"/>
     <path id="164" class="fil139" d="M719.21 -6450.1c1058.58,-4920.74 3004.29,-5762.17 4345.86,-1879.41 1341.56,3882.77 1570.97,11019.41 512.39,15940.15 -1058.58,4920.73 -3004.29,5762.17 -4345.86,1879.4 -1341.57,-3882.76 -1570.98,-11019.41 -512.39,-15940.14zm-14.81 -42.87c-1065.04,4950.74 -834.24,12130.9 515.51,16037.34 1349.75,3906.44 3307.32,3059.87 4372.36,-1890.86 1065.04,-4950.74 834.23,-12130.9 -515.52,-16037.35 -1349.75,-3906.44 -3307.32,-3059.87 -4372.35,1890.87z"/>
     <path id="165" class="fil140" d="M709.33 -6478.68c1062.89,-4940.74 3016.5,-5785.6 4363.53,-1887.05 1347.02,3898.55 1577.36,11064.21 514.47,16004.95 -1062.88,4940.73 -3016.5,5785.59 -4363.52,1887.04 -1347.02,-3898.55 -1577.36,-11064.21 -514.48,-16004.94zm-14.81 -42.87c-1069.34,4970.74 -837.6,12179.91 517.6,16102.14 1355.2,3922.23 3320.69,3072.24 4390.03,-1898.5 1069.34,-4970.75 837.6,-12179.92 -517.61,-16102.14 -1355.2,-3922.23 -3320.68,-3072.24 -4390.02,1898.5z"/>
     <path id="166" class="fil141" d="M699.46 -6507.26c1067.19,-4960.74 3028.71,-5809.02 4381.19,-1894.69 1352.48,3914.34 1583.75,11109.01 516.56,16069.75 -1067.19,4960.74 -3028.72,5809.01 -4381.19,1894.68 -1352.48,-3914.33 -1583.75,-11109 -516.56,-16069.74zm-14.81 -42.87c-1073.65,4990.75 -840.98,12228.93 519.68,16166.94 1360.66,3938.01 3334.05,3084.6 4407.69,-1906.15 1073.64,-4990.74 840.97,-12228.92 -519.68,-16166.93 -1360.66,-3938.01 -3334.05,-3084.6 -4407.69,1906.14z"/>
     <path id="167" class="fil142" d="M689.58 -6535.84c1071.5,-4980.74 3040.93,-5832.44 4398.86,-1902.32 1357.93,3930.11 1590.13,11153.79 518.64,16134.53 -1071.49,4980.75 -3040.92,5832.45 -4398.85,1902.33 -1357.93,-3930.12 -1590.14,-11153.8 -518.65,-16134.54zm-14.81 -42.87c-1077.94,5010.75 -844.34,12277.94 521.77,16231.74 1366.11,3953.79 3347.41,3096.96 4425.35,-1913.79 1077.95,-5010.74 844.35,-12277.94 -521.76,-16231.73 -1366.11,-3953.79 -3347.41,-3096.96 -4425.36,1913.78z"/>
     <path id="168" class="fil143" d="M679.71 -6564.42c1075.79,-5000.74 3053.14,-5855.86 4416.52,-1909.96 1363.39,3945.9 1596.52,11198.59 520.73,16199.33 -1075.8,5000.75 -3053.14,5855.87 -4416.53,1909.97 -1363.38,-3945.9 -1596.52,-11198.59 -520.72,-16199.34zm-14.81 -42.87c-1082.25,5030.75 -847.72,12326.96 523.85,16296.54 1371.56,3969.57 3360.77,3109.32 4443.02,-1921.43 1082.25,-5030.75 847.71,-12326.95 -523.85,-16296.53 -1371.56,-3969.58 -3360.77,-3109.33 -4443.02,1921.42z"/>
     <path id="169" class="fil144" d="M669.83 -6593c1080.1,-5020.74 3065.36,-5879.29 4434.19,-1917.6 1368.84,3961.68 1602.91,11243.38 522.81,16264.13 -1080.1,5020.75 -3065.35,5879.29 -4434.19,1917.61 -1368.83,-3961.69 -1602.9,-11243.39 -522.81,-16264.14zm-14.81 -42.86c-1086.55,5050.75 -851.08,12375.96 525.94,16361.32 1377.01,3985.36 3374.13,3121.69 4460.68,-1929.06 1086.56,-5050.75 851.09,-12375.97 -525.93,-16361.33 -1377.02,-3985.36 -3374.13,-3121.69 -4460.69,1929.07z"/>
     <path id="170" class="fil0" d="M659.96 -6621.58c1084.4,-5040.75 3077.56,-5902.71 4451.86,-1925.24 1374.29,3977.47 1609.29,11288.18 524.89,16328.93 -1084.41,5040.75 -3077.57,5902.71 -4451.86,1925.25 -1374.29,-3977.47 -1609.29,-11288.18 -524.89,-16328.94zm-14.81 -42.86c-1090.86,5070.75 -854.46,12424.98 528.01,16426.12 1382.47,4001.15 3387.5,3134.05 4478.36,-1936.7 1090.85,-5070.76 854.45,-12424.98 -528.02,-16426.13 -1382.47,-4001.14 -3387.5,-3134.05 -4478.35,1936.71z"/>
     <path id="171" class="fil0" d="M650.09 -6650.15c1088.7,-5060.76 3089.77,-5926.14 4469.52,-1932.89 1379.74,3993.25 1615.67,11332.98 526.97,16393.73 -1088.7,5060.75 -3089.78,5926.14 -4469.52,1932.88 -1379.74,-3993.25 -1615.68,-11332.97 -526.97,-16393.72zm-14.82 -42.87c-1095.16,5090.76 -857.82,12473.99 530.1,16490.92 1387.93,4016.93 3400.86,3146.42 4496.02,-1944.34 1095.16,-5090.76 857.83,-12474 -530.1,-16490.93 -1387.92,-4016.92 -3400.86,-3146.41 -4496.02,1944.35z"/>
     <path id="172" class="fil0" d="M640.21 -6678.73c1093.01,-5080.76 3101.99,-5949.56 4487.19,-1940.53 1385.2,4009.04 1622.06,11377.77 529.06,16458.53 -1093.01,5080.76 -3101.99,5949.56 -4487.19,1940.52 -1385.2,-4009.03 -1622.07,-11377.77 -529.06,-16458.52zm-14.81 -42.87c-1099.46,5110.76 -861.2,12523.01 532.18,16555.72 1393.38,4032.71 3414.22,3158.78 4513.69,-1951.98 1099.46,-5110.77 861.19,-12523.01 -532.18,-16555.72 -1393.38,-4032.72 -3414.23,-3158.78 -4513.69,1951.98z"/>
     <path id="173" class="fil0" d="M630.34 -6707.31c1097.31,-5100.76 3114.2,-5972.98 4504.85,-1948.17 1390.65,4024.82 1628.45,11422.57 531.14,16523.33 -1097.31,5100.76 -3114.2,5972.98 -4504.85,1948.16 -1390.65,-4024.82 -1628.45,-11422.56 -531.14,-16523.32zm-9.88 -28.58c-1101.61,5120.76 -862.88,12547.52 533.22,16588.12 1396.11,4040.6 3420.91,3164.96 4522.52,-1955.8 1101.62,-5120.77 862.89,-12547.52 -533.22,-16588.12 -1396.1,-4040.61 -3420.9,-3164.96 -4522.52,1955.8z"/>
    </g>
    <path id="174" class="fil145 str0" d="M5015.84 1688.61c-248.04,-6.44 -538.13,585.85 -528.49,1114.07 2.24,160.88 53.02,487.17 127.11,896.96 -467.25,483.61 -1009.81,979.92 -1009.81,1631.13 -7.45,596.77 357.28,1357.07 1222.61,1349.76 132.82,-0.91 252.34,-17.37 358.52,-45.7 79.11,433.74 131.72,776.07 131.4,934.21 2.79,623.42 -816.3,685.12 -855.56,326.79 172.63,-5.94 309.97,-143.05 309.97,-312.62 0,-173.22 -143.42,-314.45 -321.4,-314.45 -97.85,0 -185.06,42.96 -244.2,110.15 -1.37,1.37 -2.97,2.74 -4.3,4.11 -13.34,14.17 -24.58,31.08 -35.69,50.28 -36.47,61.7 -60.15,150.37 -61.43,276.97 0,521.96 1319.74,857.89 1319.74,-171.39 2.05,-138.49 -57.5,-489.96 -144.25,-932.85 941.66,-340.5 705.1,-1738.62 -161.38,-1745.2 -67.19,0.68 -131.96,8.5 -194.25,24.31 -49.36,-237.53 -96.99,-468.07 -138.58,-679.91 329.03,-323.18 616.34,-741.52 609.89,-1512.52 1.01,-553.67 -183.46,-997.65 -379.9,-1004.1l0 0zm58.55 535.62c112.25,-10.83 201.37,93.38 201.37,322.77 9.1,393.98 -266.91,738.05 -595.58,1084.08 -31.44,-189.54 -52.06,-343.11 -54.3,-434.2 9.33,-615.46 261.39,-954.6 448.51,-972.65zm-352.8 2042.43c40.08,206.36 83.37,423.78 127.11,642.75 -573.51,204.03 -848.75,1003.41 -35.7,1361.15 -495.58,-421.91 -251.65,-921.33 105.67,-1008.35 89.86,448.64 177.61,891.34 248.54,1273.9 -96.3,33.82 -208.69,53.47 -339.95,54.39 -328.21,0 -984.08,-208.88 -984.08,-999.81 0,-662.45 459.2,-931.65 878.41,-1324.03l0 0zm278.53 981.24c14.3,-0.87 29.8,-0.5 44.24,0 597.05,0 822.24,948.16 214.26,1251.18 -75.64,-380.26 -167.37,-816.29 -258.5,-1251.18z"/>
   </g>
  </g>
 </g>
</svg>
