<?xml version="1.0" encoding="UTF-8"?>
<!DOCTYPE svg PUBLIC "-//W3C//DTD SVG 1.1//EN" "http://www.w3.org/Graphics/SVG/1.1/DTD/svg11.dtd">
<!-- Creator: CorelDRAW 2020 (64-Bit) -->
<svg xmlns="http://www.w3.org/2000/svg" xml:space="preserve" width="100mm" height="100mm" version="1.1" style="shape-rendering:geometricPrecision; text-rendering:geometricPrecision; image-rendering:optimizeQuality; fill-rule:evenodd; clip-rule:evenodd"
viewBox="0 0 10000 10000"
 xmlns:xlink="http://www.w3.org/1999/xlink"
 xmlns:xodm="http://www.corel.com/coreldraw/odm/2003">
 <defs>
  <style type="text/css">
   <![CDATA[
    .str0 {stroke:#CC6F3C;stroke-width:140;stroke-miterlimit:22.9256}
    .fil0 {fill:url(#id0);fill-rule:nonzero}
   ]]>
  </style>
  <linearGradient id="id0" gradientUnits="userSpaceOnUse" x1="3601.54" y1="4947.13" x2="5882.54" y2="4947.13">
   <stop offset="0" style="stop-opacity:1; stop-color:#FECC00"/>
   <stop offset="0.541176" style="stop-opacity:1; stop-color:#FEE57F"/>
   <stop offset="1" style="stop-opacity:1; stop-color:white"/>
  </linearGradient>
 </defs>
 <g id="Warstwa_x0020_1">
  <metadata id="CorelCorpID_0Corel-Layer"/>
  <g id="rickvanderzwet_Treble_clef_1.svg">
   <path id="path26" class="fil0 str0" d="M5012.84 1687.51c-248.04,-6.44 -538.13,585.85 -528.49,1114.07 2.24,160.88 53.02,487.17 127.11,896.96 -467.25,483.61 -1009.81,979.92 -1009.81,1631.13 -7.45,596.77 357.28,1357.07 1222.61,1349.76 132.82,-0.91 252.34,-17.37 358.52,-45.7 79.11,433.74 131.72,776.07 131.4,934.21 2.79,623.42 -816.3,685.12 -855.56,326.79 172.63,-5.94 309.97,-143.05 309.97,-312.62 0,-173.22 -143.42,-314.45 -321.4,-314.45 -97.85,0 -185.06,42.96 -244.2,110.15 -1.37,1.37 -2.97,2.74 -4.3,4.11 -13.34,14.17 -24.58,31.08 -35.69,50.28 -36.47,61.7 -60.15,150.37 -61.43,276.97 0,521.96 1319.74,857.89 1319.74,-171.39 2.05,-138.49 -57.5,-489.96 -144.25,-932.85 941.66,-340.5 705.1,-1738.62 -161.38,-1745.2 -67.19,0.68 -131.96,8.5 -194.25,24.31 -49.36,-237.53 -96.99,-468.07 -138.58,-679.91 329.03,-323.18 616.34,-741.52 609.89,-1512.52 1.01,-553.67 -183.46,-997.65 -379.9,-1004.1l0 0zm58.55 535.62c112.25,-10.83 201.37,93.38 201.37,322.77 9.1,393.98 -266.91,738.05 -595.58,1084.08 -31.44,-189.54 -52.06,-343.11 -54.3,-434.2 9.33,-615.46 261.39,-954.6 448.51,-972.65zm-352.8 2042.43c40.08,206.36 83.37,423.78 127.11,642.75 -573.51,204.03 -848.75,1003.41 -35.7,1361.15 -495.58,-421.91 -251.65,-921.33 105.67,-1008.35 89.86,448.64 177.61,891.34 248.54,1273.9 -96.3,33.82 -208.69,53.47 -339.95,54.39 -328.21,0 -984.08,-208.88 -984.08,-999.81 0,-662.45 459.2,-931.65 878.41,-1324.03l0 0zm278.53 981.24c14.3,-0.87 29.8,-0.5 44.24,0 597.05,0 822.24,948.16 214.26,1251.18 -75.64,-380.26 -167.37,-816.29 -258.5,-1251.18z"/>
  </g>
 </g>
</svg>
