<svg id="svg2" xmlns="http://www.w3.org/2000/svg" viewBox="0 0 110.03 107.5"><defs><style>.cls-1{fill:#2a5699;}.cls-2{fill:#fff;}</style></defs><g id="g3103"><path id="path6" class="cls-1" d="M423.44,243.89h7.47v10c13.38.07,26.74-.14,40.1.07a4.31,4.31,0,0,1,4.83,4.78c.21,24.62,0,49.26.12,73.88-.12,2.53.25,5.33-1.21,7.57-1.83,1.3-4.19,1.14-6.31,1.23-12.52-.06-25,0-37.53,0v10H423.1c-19-3.48-38.1-6.66-57.16-10q0-43.74,0-87.48C385.1,250.56,404.27,247.3,423.44,243.89Z" transform="translate(-365.93 -243.89)"/><path id="path46" class="cls-2" d="M430.91,257.64h41.25v80H430.91v-10h32.5v-5h-32.5v-6.25h32.5v-5h-32.5v-6.25h32.5v-5h-32.5v-6.25h32.5v-5h-32.5v-6.25h32.5v-5h-32.5v-6.25h32.5v-5h-32.5Z" transform="translate(-365.93 -243.89)"/><path id="path88" class="cls-2" d="M391.76,279.72l7.13-.36c1.66,8.44,3.36,16.86,5.16,25.26,1.41-8.67,3-17.32,4.48-26,2.5-.09,5-.23,7.49-.38-2.82,12.11-5.3,24.33-8.39,36.36-2.08,1.09-5.21,0-7.68.13-1.67-8.27-3.6-16.5-5.09-24.81-1.46,8.07-3.36,16.07-5,24.1q-3.6-.19-7.22-.44c-2.08-11-4.52-21.92-6.45-33,2.13-.1,4.28-.19,6.42-.26,1.29,8,2.75,15.89,3.88,23.86C388.21,296.08,390,287.9,391.76,279.72Z" transform="translate(-365.93 -243.89)"/></g></svg>